<svg width="324" height="95" viewBox="0 0 324 95" fill="none" xmlns="http://www.w3.org/2000/svg">
<path d="M321.556 34.8711C320.059 33.7733 316.765 31.7773 314.37 30.5797C311.875 29.3821 309.68 27.9849 309.38 27.5857C307.684 25.0907 297.704 21.8971 289.021 20.9989C285.927 20.7993 282.135 20.0009 280.538 19.3023C277.245 17.9051 270.458 12.1167 270.458 10.6197C270.458 10.1207 269.66 9.52187 268.662 9.22247C267.664 8.82327 265.768 7.62567 264.57 6.52787C261.277 3.43407 259.58 4.63167 260.179 9.72147C260.478 12.1167 261.376 15.0109 262.175 16.2085C263.971 19.0029 263.073 19.5019 256.786 18.9031C252.295 18.4041 251.696 18.1047 252.095 16.3083C252.694 13.1147 247.604 9.12267 239.919 6.62767C236.127 5.43007 232.335 3.93307 231.536 3.33427C230.239 2.33627 230.239 2.33627 231.436 3.93307C233.133 6.02887 232.235 6.12867 229.041 4.03287C226.546 2.43607 226.546 2.43607 226.546 5.23047C226.546 6.82727 227.444 9.52187 228.442 11.2185C230.538 14.7115 236.426 19.6017 238.522 19.6017C241.516 19.6017 237.724 21.2983 232.335 22.4959C227.245 23.5937 226.347 23.4939 224.949 22.0967C224.051 21.1985 223.552 19.7015 223.852 18.5039C224.151 17.3063 224.151 16.7075 223.852 17.0069C223.452 17.3063 222.654 16.7075 221.856 15.6097C221.057 14.5119 219.66 13.6137 218.762 13.7135C217.365 13.7135 217.464 13.9131 219.061 14.6117C220.858 15.4101 220.758 15.5099 218.263 15.5099C215.868 15.6097 215.568 15.9091 216.067 17.8053C216.666 19.6017 216.466 19.8013 214.969 19.1027C211.476 17.7055 208.582 17.4061 208.582 18.5039C208.582 19.1027 209.68 19.8013 211.077 20.2005C212.474 20.4999 213.572 21.1985 213.572 21.6975C213.572 24.4919 204.79 19.8013 200.698 14.9111C197.604 11.3183 197.604 11.2185 199.001 14.2125C199.8 15.9091 202.095 18.7035 203.991 20.4001C207.385 23.3941 214.071 25.9889 215.668 24.9909C216.067 24.7913 216.666 24.9909 217.065 25.5897C217.864 26.8871 209.281 30.6795 204.391 31.0787C201.297 31.3781 200.598 31.0787 200.598 29.6815C200.598 26.5877 190.718 23.3941 180.239 23.0947L171.157 22.7953L173.552 24.6915C175.349 26.1885 175.648 26.8871 174.75 27.8851C173.952 28.9829 174.251 29.7813 175.948 31.2783C179.54 34.6715 182.834 35.9689 188.622 36.5677L194.111 37.0667L187.325 40.8591C181.237 44.3521 180.439 44.5517 179.041 43.1545C176.946 40.9589 173.153 40.0607 166.666 40.2603C142.914 40.7593 141.816 40.8591 142.714 42.4559C144.71 46.2483 153.692 51.5377 158.083 51.5377C162.574 51.5377 161.776 53.3341 156.087 56.0287C152.295 57.8251 150.099 58.3241 149.501 57.7253C148.902 57.1265 147.804 56.9269 147.105 57.2263C146.307 57.5257 145.708 57.3261 145.708 56.7273C145.708 56.2283 145.01 55.4299 144.111 55.1305C142.614 54.5317 142.614 54.7313 143.812 56.1285C145.109 57.7253 145.01 57.7253 142.016 56.1285C138.722 54.5317 133.732 54.8311 133.732 56.6275C133.732 57.8251 129.042 57.7253 126.646 56.4279C125.449 55.8291 124.85 54.7313 125.149 53.9329C125.449 53.1345 125.05 52.5357 124.251 52.5357C123.453 52.5357 122.754 52.9349 122.754 53.4339C122.754 54.7313 130.239 61.2183 132.734 62.0167C133.932 62.4159 134.531 63.1145 134.131 63.5137C132.934 64.7113 122.455 66.5077 116.367 66.6075C111.577 66.7073 111.477 66.7073 114.67 67.5057C116.567 68.0047 118.762 68.1045 119.561 67.7053C120.758 67.3061 120.958 67.6055 120.259 69.1025C119.76 70.1005 119.461 72.3959 119.561 73.9927C119.86 78.8829 117.864 83.3739 114.171 85.8689C108.782 89.5615 110.878 89.7611 121.257 86.7671C125.549 85.4697 130.738 78.2841 130.738 73.5935C130.738 71.5975 130.139 69.3021 129.541 68.7033C127.944 67.1065 130.04 65.5097 133.533 65.5097C134.83 65.5097 140.02 63.9129 145.209 62.0167C152.894 59.1225 154.99 58.7233 157.285 59.5217C159.58 60.4199 159.78 60.4199 158.782 59.1225C157.684 57.8251 158.083 57.2263 160.878 55.5297C162.674 54.4319 164.67 53.5337 165.369 53.5337C165.968 53.5337 167.165 53.2343 167.964 52.9349C169.161 52.5357 169.261 53.0347 168.363 56.3281C167.465 59.8211 168.363 67.6055 169.361 64.7113C169.66 64.1125 170.259 63.8131 170.858 64.1125C171.357 64.4119 172.654 63.8131 173.752 62.6155C174.85 61.4179 176.347 60.5197 177.045 60.5197C180.439 60.5197 182.235 55.7293 181.437 48.5437C181.137 46.4479 182.035 45.5497 187.125 42.8551C194.111 39.0627 196.806 38.5637 194.211 41.4579C190.019 46.0487 190.518 55.9289 195.009 55.3301C197.504 54.9309 204.391 48.8431 206.287 45.2503C207.085 43.6535 207.584 40.6595 207.484 38.4639C207.285 36.3681 207.584 34.1725 208.083 33.6735C209.281 32.6755 216.367 30.1805 218.762 29.9809C221.257 29.7813 226.746 27.4859 228.742 25.7893C232.035 22.9949 249.6 20.1007 248.003 22.5957C247.604 23.1945 248.502 23.1945 250.199 22.4959C255.388 20.4999 272.155 20.2005 282.434 21.9969C287.624 22.8951 293.512 23.8931 295.408 24.1925C297.304 24.3921 304.59 27.5857 311.676 31.0787C318.662 34.5717 324.35 37.3661 324.35 37.1665C324.35 37.0667 323.053 36.0687 321.556 34.8711ZM194.111 54.5317C193.912 54.5317 193.113 53.5337 192.514 52.3361C191.916 51.0387 191.716 50.3401 192.115 50.7393C192.514 51.1385 193.712 51.0387 194.81 50.4399C197.604 48.9429 198.802 50.3401 196.606 52.5357C195.508 53.6335 194.411 54.5317 194.111 54.5317ZM125.748 82.9747C125.149 83.2741 125.05 82.8749 125.349 82.0765C126.048 80.2801 126.746 79.9807 126.746 81.3779C126.746 81.9767 126.347 82.6753 125.748 82.9747Z" fill="#765B64"/>
<path d="M227.544 0.140672C227.045 0.440072 226.546 0.939072 226.546 1.23847C226.546 1.43807 227.045 1.63767 227.544 1.63767C228.143 1.63767 228.542 1.13867 228.542 0.539872C228.542 0.040872 228.143 -0.158728 227.544 0.140672Z" fill="#765B64"/>
<path d="M215.269 11.7175C214.271 11.6177 213.672 11.2185 213.971 10.7195C214.57 9.72147 208.782 8.62367 203.592 8.72347C200.698 8.72347 200.498 8.92307 202.095 9.62167C203.193 10.1207 205.488 10.5199 207.285 10.5199C208.981 10.6197 211.077 11.2185 211.776 11.9171C212.574 12.8153 213.872 13.0149 215.069 12.5159C216.866 11.8173 216.866 11.7175 215.269 11.7175Z" fill="#765B64"/>
<path d="M175.648 62.5157C175.149 62.5157 174.65 63.0147 174.65 63.6135C174.65 64.1125 175.149 64.3121 175.648 64.0127C176.247 63.7133 176.646 63.2143 176.646 62.9149C176.646 62.7153 176.247 62.5157 175.648 62.5157Z" fill="#765B64"/>
<path d="M173.552 66.1085C173.053 66.4079 172.654 67.5057 172.654 68.5037C172.654 69.5017 172.155 70.5995 171.656 70.7991C171.057 71.0985 171.157 71.1983 171.855 71.0985C172.454 70.9987 173.352 69.7013 173.752 68.2043C174.151 66.6075 174.051 65.7093 173.552 66.1085Z" fill="#765B64"/>
<path d="M154.59 61.2183C153.891 61.9169 153.592 62.7153 153.891 63.0147C154.191 63.3141 154.79 62.8151 155.089 61.8171C155.688 60.4199 155.588 60.3201 154.59 61.2183Z" fill="#765B64"/>
<path d="M117.764 46.5477C116.466 46.5477 115.568 48.3441 116.666 48.9429C117.165 49.2423 117.764 48.8431 118.163 48.0447C118.462 47.2463 118.263 46.5477 117.764 46.5477Z" fill="#765B64"/>
<path d="M92.8138 66.0087C91.3168 64.6115 85.6282 61.5177 80.239 59.1225C70.6582 54.9309 70.3588 54.9309 68.6622 56.7273C67.4646 58.1245 66.9656 58.2243 66.5664 57.3261C66.3668 56.6275 65.768 56.3281 65.3688 56.7273C64.9696 57.1265 65.3688 58.7233 66.3668 60.2203C69.8598 65.5097 73.8518 68.1045 80.3388 69.2023C88.4226 70.4997 91.217 71.2981 88.722 71.3979C87.3248 71.4977 85.1292 72.6953 83.732 74.1923L81.3368 76.8869L83.9316 75.2901C87.724 72.8949 93.4126 71.4977 94.6102 72.6953C95.209 73.2941 95.6082 72.7951 95.6082 71.0985C95.6082 69.7013 94.4106 67.5057 92.8138 66.0087Z" fill="#765B64"/>
<path d="M89.6202 74.8909C88.9216 74.3919 88.8218 74.5915 89.3208 75.4897C89.9196 76.4877 89.72 76.6873 88.5224 76.1883C87.4246 75.7891 86.8258 76.0885 86.8258 76.8869C86.8258 77.6853 86.227 78.4837 85.6282 78.7831C84.9296 78.9827 84.6302 79.4817 84.9296 79.8809C85.8278 80.8789 88.223 79.6813 89.6202 77.4857C90.4186 76.0885 90.5184 75.3899 89.6202 74.8909Z" fill="#765B64"/>
<path d="M81.7362 77.4857C81.2372 77.4857 81.0376 77.9847 81.337 78.4837C81.6364 79.0825 82.1354 79.4817 82.4348 79.4817C82.6344 79.4817 82.834 79.0825 82.834 78.4837C82.834 77.9847 82.335 77.4857 81.7362 77.4857Z" fill="#765B64"/>
<path d="M75.1493 72.2961C74.4507 69.5017 69.2611 70.0007 66.3669 73.0945C62.7741 76.9867 60.4787 83.6733 61.1773 88.5635C61.7761 93.1543 63.4727 95.6493 64.6703 93.8529C65.0695 93.2541 66.9657 90.8589 68.8619 88.4637C75.1493 80.9787 76.5465 77.3859 75.1493 72.2961ZM70.8579 83.4737C70.3589 83.4737 69.8599 83.2741 69.8599 83.0745C69.8599 82.7751 70.3589 82.2761 70.8579 81.9767C71.4567 81.6773 71.8559 81.8769 71.8559 82.3759C71.8559 82.9747 71.4567 83.4737 70.8579 83.4737Z" fill="#765B64"/>
<path d="M58.3828 67.7053C56.786 67.7053 56.1872 67.9049 57.1852 68.2043C58.0834 68.4039 59.4806 68.4039 60.1792 68.2043C60.778 67.9049 60.0794 67.7053 58.3828 67.7053Z" fill="#765B64"/>
<path d="M42.6146 62.0167C41.0178 56.7273 38.6226 52.5357 37.6246 53.2343C37.0258 53.5337 36.926 53.3341 37.3252 52.7353C38.0238 51.6375 33.0338 45.1505 32.1356 45.9489C31.8362 46.2483 31.0378 46.0487 30.2394 45.4499C29.3412 44.5517 28.942 44.6515 28.942 45.4499C28.942 46.0487 28.2434 46.5477 27.445 46.5477C24.8502 46.5477 27.2454 53.8331 31.1376 58.2243C32.3352 59.4219 32.8342 60.9189 32.435 61.6175C31.936 62.3161 32.0358 62.6155 32.6346 62.2163C33.2334 61.8171 35.7284 62.4159 38.0238 63.5137C40.419 64.6115 41.8162 65.5097 41.0178 65.5097C40.2194 65.5097 39.8202 65.8091 40.2194 66.1085C40.5188 66.4079 41.417 66.3081 42.1156 65.8091C43.2134 65.2103 43.3132 64.2123 42.6146 62.0167Z" fill="#765B64"/>
<path d="M36.926 67.5057C36.1276 67.4059 34.5308 67.4059 33.433 67.5057C31.5368 67.7053 31.5368 67.6055 33.3332 66.3081C35.0298 64.9109 35.0298 64.8111 32.5348 63.2143C31.1376 62.3161 29.441 61.5177 28.7424 61.5177C27.0458 61.6175 21.0578 66.5077 22.7544 66.5077C23.453 66.5077 23.7524 67.0067 23.453 67.6055C23.0538 68.2043 22.1556 68.4039 21.3572 68.1045C20.5588 67.8051 19.96 68.2043 19.96 69.0027C19.96 70.0007 20.8582 70.2003 23.2534 69.9009C24.95 69.6015 29.1416 69.0027 32.435 68.6035C35.7284 68.1045 37.7244 67.6055 36.926 67.5057Z" fill="#765B64"/>
<path d="M19.0618 48.8431C17.465 47.1465 15.8682 45.9489 15.5688 46.2483C15.2694 46.5477 15.1696 45.8491 15.469 44.6515C15.6686 43.5537 15.469 42.5557 14.8702 42.5557C14.3712 42.5557 13.473 40.6595 12.7744 38.2643C11.976 35.0707 10.6786 33.2743 8.1836 31.6775C6.2874 30.4799 5.0898 29.9809 5.5888 30.6795C6.0878 31.5777 5.7884 31.7773 4.6906 31.2783C3.7924 30.9789 2.7944 31.0787 2.3952 31.6775C1.3972 33.4739 6.8862 42.9549 10.479 45.5497C14.3712 48.3441 14.7704 49.3421 12.2754 50.1405C8.483 51.2383 1.11328e-06 55.8291 1.15254e-06 56.7273C1.17872e-06 57.3261 1.2974 57.5257 3.2934 57.1265C6.2874 56.6275 6.3872 56.6275 4.5908 58.0247C1.8962 60.0207 2.994 60.7193 8.6826 60.7193C14.7704 60.6195 18.2634 59.3221 20.3592 56.3281C22.5548 53.3341 22.3552 52.5357 19.0618 48.8431ZM15.2694 50.1405C14.2714 49.1425 15.7684 48.2443 17.0658 49.1425C18.1636 49.7413 18.1636 49.9409 17.0658 50.3401C16.3672 50.5397 15.5688 50.4399 15.2694 50.1405Z" fill="#765B64"/>
<path d="M16.966 41.0587C16.3672 40.7593 16.2674 41.1585 16.5668 41.9569C17.2654 43.7533 17.964 44.0527 17.964 42.6555C17.964 42.0567 17.5648 41.3581 16.966 41.0587Z" fill="#765B64"/>
</svg>
