<svg width="325" height="95" viewBox="0 0 325 95" fill="none" xmlns="http://www.w3.org/2000/svg">
<path d="M2.79439 59.5677C4.29138 60.6655 7.58479 62.6615 9.97998 63.8591C12.475 65.0567 14.6706 66.4539 14.97 66.8531C16.6666 69.3481 26.6466 72.5417 35.3292 73.4399C38.423 73.6395 42.2154 74.4379 43.8122 75.1365C47.1056 76.5337 53.892 82.3221 53.892 83.8191C53.892 84.3181 54.6904 84.9169 55.6884 85.2163C56.6864 85.6155 58.5826 86.8131 59.7802 87.9109C63.0736 91.0047 64.7702 89.8071 64.1714 84.7173C63.872 82.3221 62.9738 79.4279 62.1754 78.2303C60.379 75.4359 61.2772 74.9369 67.5646 75.5357C72.0556 76.0347 72.6544 76.3341 72.2552 78.1305C71.6564 81.3241 76.7462 85.3161 84.4308 87.8111C88.2232 89.0087 92.0156 90.5057 92.814 91.1045C94.1114 92.1025 94.1114 92.1025 92.9138 90.5057C91.2172 88.4099 92.1154 88.3101 95.309 90.4059C97.804 92.0027 97.804 92.0027 97.804 89.2083C97.804 87.6115 96.9058 84.9169 95.9078 83.2203C93.812 79.7273 87.9238 74.8371 85.828 74.8371C82.834 74.8371 86.6264 73.1405 92.0156 71.9429C97.1054 70.8451 98.0036 70.9449 99.4008 72.3421C100.299 73.2403 100.798 74.7373 100.499 75.9349C100.199 77.1325 100.199 77.7313 100.499 77.4319C100.898 77.1325 101.696 77.7313 102.495 78.8291C103.293 79.9269 104.69 80.8251 105.588 80.7253C106.986 80.7253 106.886 80.5257 105.289 79.8271C103.493 79.0287 103.592 78.9289 106.087 78.9289C108.483 78.8291 108.782 78.5297 108.283 76.6335C107.684 74.8371 107.884 74.6375 109.381 75.3361C112.874 76.7333 115.768 77.0327 115.768 75.9349C115.768 75.3361 114.67 74.6375 113.273 74.2383C111.876 73.9389 110.778 73.2403 110.778 72.7413C110.778 69.9469 119.56 74.6375 123.652 79.5277C126.746 83.1205 126.746 83.2203 125.349 80.2263C124.55 78.5297 122.255 75.7353 120.359 74.0387C116.966 71.0447 110.279 68.4499 108.682 69.4479C108.283 69.6475 107.684 69.4479 107.285 68.8491C106.487 67.5517 115.069 63.7593 119.96 63.3601C123.053 63.0607 123.752 63.3601 123.752 64.7573C123.752 67.8511 133.632 71.0447 144.111 71.3441L153.193 71.6435L150.798 69.7473C149.001 68.2503 148.702 67.5517 149.6 66.5537C150.399 65.4559 150.099 64.6575 148.403 63.1605C144.81 59.7673 141.516 58.4699 135.728 57.8711L130.239 57.3721L137.025 53.5797C143.113 50.0867 143.912 49.8871 145.309 51.2843C147.405 53.4799 151.197 54.3781 157.684 54.1785C181.436 53.6795 182.534 53.5797 181.636 51.9829C179.64 48.1905 170.658 42.9011 166.267 42.9011C161.776 42.9011 162.574 41.1047 168.263 38.4101C172.055 36.6137 174.251 36.1147 174.85 36.7135C175.448 37.3123 176.546 37.5119 177.245 37.2125C178.043 36.9131 178.642 37.1127 178.642 37.7115C178.642 38.2105 179.341 39.0089 180.239 39.3083C181.736 39.9071 181.736 39.7075 180.538 38.3103C179.241 36.7135 179.341 36.7135 182.335 38.3103C185.628 39.9071 190.618 39.6077 190.618 37.8113C190.618 36.6137 195.309 36.7135 197.704 38.0109C198.901 38.6097 199.5 39.7075 199.201 40.5059C198.901 41.3043 199.301 41.9031 200.099 41.9031C200.897 41.9031 201.596 41.5039 201.596 41.0049C201.596 39.7075 194.111 33.2205 191.616 32.4221C190.418 32.0229 189.82 31.3243 190.219 30.9251C191.416 29.7275 201.895 27.9311 207.983 27.8313C212.774 27.7315 212.873 27.7315 209.68 26.9331C207.784 26.4341 205.588 26.3343 204.79 26.7335C203.592 27.1327 203.392 26.8333 204.091 25.3363C204.59 24.3383 204.889 22.0429 204.79 20.4461C204.49 15.5559 206.486 11.0649 210.179 8.56994C215.568 4.87734 213.472 4.67774 203.093 7.67174C198.802 8.96914 193.612 16.1547 193.612 20.8453C193.612 22.8413 194.211 25.1367 194.81 25.7355C196.406 27.3323 194.311 28.9291 190.818 28.9291C189.52 28.9291 184.331 30.5259 179.141 32.4221C171.456 35.3163 169.361 35.7155 167.065 34.9171C164.77 34.0189 164.57 34.0189 165.568 35.3163C166.666 36.6137 166.267 37.2125 163.472 38.9091C161.676 40.0069 159.68 40.9051 158.981 40.9051C158.383 40.9051 157.185 41.2045 156.387 41.5039C155.189 41.9031 155.089 41.4041 155.987 38.1107C156.886 34.6177 155.987 26.8333 154.989 29.7275C154.69 30.3263 154.091 30.6257 153.492 30.3263C152.993 30.0269 151.696 30.6257 150.598 31.8233C149.5 33.0209 148.003 33.9191 147.305 33.9191C143.912 33.9191 142.115 38.7095 142.914 45.8951C143.213 47.9909 142.315 48.8891 137.225 51.5837C130.239 55.3761 127.544 55.8751 130.139 52.9809C134.331 48.3901 133.832 38.5099 129.341 39.1087C126.846 39.5079 119.96 45.5957 118.063 49.1885C117.265 50.7853 116.766 53.7793 116.866 55.9749C117.065 58.0707 116.766 60.2663 116.267 60.7653C115.069 61.7633 107.984 64.2583 105.588 64.4579C103.093 64.6575 97.6044 66.9529 95.6084 68.6495C92.315 71.4439 74.7502 74.3381 76.347 71.8431C76.7462 71.2443 75.848 71.2443 74.1514 71.9429C68.9618 73.9389 52.1954 74.2383 41.916 72.4419C36.7264 71.5437 30.8382 70.5457 28.942 70.2463C27.0458 70.0467 19.7604 66.8531 12.6746 63.3601C5.68858 59.8671 -1.67764e-05 57.0727 -1.67677e-05 57.2723C-1.67633e-05 57.3721 1.29738 58.3701 2.79439 59.5677ZM130.239 39.9071C130.439 39.9071 131.237 40.9051 131.836 42.1027C132.435 43.4001 132.634 44.0987 132.235 43.6995C131.836 43.3003 130.638 43.4001 129.54 43.9989C126.746 45.4959 125.548 44.0987 127.744 41.9031C128.842 40.8053 129.94 39.9071 130.239 39.9071ZM198.602 11.4641C199.201 11.1647 199.301 11.5639 199.001 12.3623C198.303 14.1587 197.604 14.4581 197.604 13.0609C197.604 12.4621 198.003 11.7635 198.602 11.4641Z" fill="#765B64"/>
<path d="M96.8062 94.2981C97.3052 93.9987 97.8042 93.4997 97.8042 93.2003C97.8042 93.0007 97.3052 92.8011 96.8062 92.8011C96.2074 92.8011 95.8082 93.3001 95.8082 93.8989C95.8082 94.3979 96.2074 94.5975 96.8062 94.2981Z" fill="#765B64"/>
<path d="M109.081 82.7213C110.079 82.8211 110.678 83.2203 110.379 83.7193C109.78 84.7173 115.568 85.8151 120.758 85.7153C123.652 85.7153 123.852 85.5157 122.255 84.8171C121.157 84.3181 118.862 83.9189 117.065 83.9189C115.369 83.8191 113.273 83.2203 112.574 82.5217C111.776 81.6235 110.479 81.4239 109.281 81.9229C107.485 82.6215 107.485 82.7213 109.081 82.7213Z" fill="#765B64"/>
<path d="M148.702 31.9231C149.201 31.9231 149.7 31.4241 149.7 30.8253C149.7 30.3263 149.201 30.1267 148.702 30.4261C148.103 30.7255 147.704 31.2245 147.704 31.5239C147.704 31.7235 148.103 31.9231 148.702 31.9231Z" fill="#765B64"/>
<path d="M150.798 28.3304C151.297 28.031 151.696 26.9332 151.696 25.9352C151.696 24.9372 152.195 23.8394 152.694 23.6398C153.293 23.3404 153.193 23.2406 152.495 23.3404C151.896 23.4402 150.998 24.7376 150.598 26.2346C150.199 27.8314 150.299 28.7296 150.798 28.3304Z" fill="#765B64"/>
<path d="M169.76 33.2206C170.458 32.522 170.758 31.7236 170.458 31.4242C170.159 31.1248 169.56 31.6238 169.261 32.6218C168.662 34.019 168.762 34.1188 169.76 33.2206Z" fill="#765B64"/>
<path d="M206.586 47.8911C207.883 47.8911 208.782 46.0947 207.684 45.4959C207.185 45.1965 206.586 45.5957 206.187 46.3941C205.887 47.1925 206.087 47.8911 206.586 47.8911Z" fill="#765B64"/>
<path d="M231.536 28.4301C233.033 29.8273 238.722 32.9211 244.111 35.3163C253.692 39.5079 253.991 39.5079 255.688 37.7115C256.885 36.3143 257.384 36.2145 257.783 37.1127C257.983 37.8113 258.582 38.1107 258.981 37.7115C259.38 37.3123 258.981 35.7155 257.983 34.2185C254.49 28.9291 250.498 26.3343 244.011 25.2365C235.927 23.9391 233.133 23.1407 235.628 23.0409C237.025 22.9411 239.221 21.7435 240.618 20.2465L243.013 17.5519L240.418 19.1487C236.626 21.5439 230.937 22.9411 229.74 21.7435C229.141 21.1447 228.742 21.6437 228.742 23.3403C228.742 24.7375 229.939 26.9331 231.536 28.4301Z" fill="#765B64"/>
<path d="M234.73 19.5479C235.428 20.0469 235.528 19.8473 235.029 18.9491C234.43 17.9511 234.63 17.7515 235.827 18.2505C236.925 18.6497 237.524 18.3503 237.524 17.5519C237.524 16.7535 238.123 15.9551 238.722 15.6557C239.42 15.4561 239.72 14.9571 239.42 14.5579C238.522 13.5599 236.127 14.7575 234.73 16.9531C233.931 18.3503 233.831 19.0489 234.73 19.5479Z" fill="#765B64"/>
<path d="M242.614 16.9531C243.113 16.9531 243.313 16.4541 243.013 15.9551C242.714 15.3563 242.215 14.9571 241.915 14.9571C241.716 14.9571 241.516 15.3563 241.516 15.9551C241.516 16.4541 242.015 16.9531 242.614 16.9531Z" fill="#765B64"/>
<path d="M249.201 22.1427C249.899 24.9371 255.089 24.4381 257.983 21.3443C261.576 17.4521 263.871 10.7655 263.173 5.87535C262.574 1.28455 260.877 -1.21045 259.68 0.585948C259.281 1.18475 257.384 3.57995 255.488 5.97515C249.201 13.4601 247.804 17.0529 249.201 22.1427ZM253.492 10.9651C253.991 10.9651 254.49 11.1647 254.49 11.3643C254.49 11.6637 253.991 12.1627 253.492 12.4621C252.893 12.7615 252.494 12.5619 252.494 12.0629C252.494 11.4641 252.893 10.9651 253.492 10.9651Z" fill="#765B64"/>
<path d="M265.967 26.7335C267.564 26.7335 268.163 26.5339 267.165 26.2345C266.266 26.0349 264.869 26.0349 264.171 26.2345C263.572 26.5339 264.27 26.7335 265.967 26.7335Z" fill="#765B64"/>
<path d="M281.735 32.4222C283.332 37.7116 285.727 41.9032 286.725 41.2046C287.324 40.9052 287.424 41.1048 287.025 41.7036C286.326 42.8014 291.316 49.2884 292.214 48.49C292.514 48.1906 293.312 48.3902 294.111 48.989C295.009 49.8872 295.408 49.7874 295.408 48.989C295.408 48.3902 296.107 47.8912 296.905 47.8912C299.5 47.8912 297.105 40.6058 293.212 36.2146C292.015 35.017 291.516 33.52 291.915 32.8214C292.414 32.1228 292.314 31.8234 291.715 32.2226C291.117 32.6218 288.622 32.023 286.326 30.9252C283.931 29.8274 282.534 28.9292 283.332 28.9292C284.131 28.9292 284.53 28.6298 284.131 28.3304C283.831 28.031 282.933 28.1308 282.234 28.6298C281.137 29.2286 281.037 30.2266 281.735 32.4222Z" fill="#765B64"/>
<path d="M287.424 26.9331C288.223 27.0329 289.819 27.0329 290.917 26.9331C292.813 26.7335 292.813 26.8333 291.017 28.1307C289.32 29.5279 289.32 29.6277 291.815 31.2245C293.213 32.1227 294.909 32.9211 295.608 32.9211C297.304 32.8213 303.292 27.9311 301.596 27.9311C300.897 27.9311 300.598 27.4321 300.897 26.8333C301.296 26.2345 302.195 26.0349 302.993 26.3343C303.791 26.6337 304.39 26.2345 304.39 25.4361C304.39 24.4381 303.492 24.2385 301.097 24.5379C299.4 24.8373 295.209 25.4361 291.915 25.8353C288.622 26.3343 286.626 26.8333 287.424 26.9331Z" fill="#765B64"/>
<path d="M305.288 45.5957C306.885 47.2923 308.482 48.4899 308.781 48.1905C309.081 47.8911 309.18 48.5897 308.881 49.7873C308.681 50.8851 308.881 51.8831 309.48 51.8831C309.979 51.8831 310.877 53.7793 311.576 56.1745C312.374 59.3681 313.671 61.1645 316.166 62.7613C318.063 63.9589 319.26 64.4579 318.761 63.7593C318.262 62.8611 318.562 62.6615 319.659 63.1605C320.558 63.4599 321.556 63.3601 321.955 62.7613C322.953 60.9649 317.464 51.4839 313.871 48.8891C309.979 46.0947 309.58 45.0967 312.075 44.2983C315.867 43.2005 324.35 38.6097 324.35 37.7115C324.35 37.1127 323.053 36.9131 321.057 37.3123C318.063 37.8113 317.963 37.8113 319.759 36.4141C322.454 34.4181 321.356 33.7195 315.667 33.7195C309.58 33.8193 306.087 35.1167 303.991 38.1107C301.795 41.1047 301.995 41.9031 305.288 45.5957ZM309.081 44.2983C310.079 45.2963 308.582 46.1945 307.284 45.2963C306.186 44.6975 306.186 44.4979 307.284 44.0987C307.983 43.8991 308.781 43.9989 309.081 44.2983Z" fill="#765B64"/>
<path d="M307.384 53.3801C307.983 53.6795 308.083 53.2803 307.783 52.4819C307.085 50.6855 306.386 50.3861 306.386 51.7833C306.386 52.3821 306.785 53.0807 307.384 53.3801Z" fill="#765B64"/>
</svg>
