<svg width="47" height="35" viewBox="0 0 47 35" fill="none" xmlns="http://www.w3.org/2000/svg">
<path d="M47 27.5517C47 29.3797 46.3421 30.9487 45.0264 32.2587C43.7106 33.5687 42.1042 34.2238 40.207 34.2238H6.79297C4.89583 34.2238 3.28939 33.5687 1.97363 32.2587C0.657878 30.9487 0 29.3797 0 27.5517V6.8958C0 5.06784 0.657878 3.49884 1.97363 2.18881C3.28939 0.878773 4.89583 0.223755 6.79297 0.223755H40.207C42.1042 0.223755 43.7106 0.878773 45.0264 2.18881C46.3421 3.49884 47 5.06784 47 6.8958V27.5517ZM7.80273 13.9334H9.08789L8.44531 12.1969L7.80273 13.9334ZM14.7793 19.5087V20.3313H17.0742V21.1539H14.7793V22.0678H17.2578L18.4512 20.7883L17.3496 19.5087H14.7793ZM32.2207 12.1969L31.5781 13.9334H32.9551L32.2207 12.1969ZM21.2969 22.5248V19.1431L19.7363 20.7883L21.2969 22.5248ZM24.2344 20.0571C24.1732 19.6915 23.959 19.5087 23.5918 19.5087H22.3066V20.6055H23.5918C24.0202 20.6055 24.2344 20.4227 24.2344 20.0571ZM28.457 20.5141C28.5794 20.4531 28.6406 20.3008 28.6406 20.0571C28.7018 19.8743 28.6406 19.7524 28.457 19.6915C28.3958 19.6306 28.2428 19.6001 27.998 19.6001H26.8047V20.5141H27.998C28.2428 20.5141 28.3958 20.5141 28.457 20.5141ZM37.1777 10.6431V11.3743L36.8105 10.6431H33.9648V11.3743L33.5977 10.6431H29.7422C29.069 10.6431 28.4876 10.765 27.998 11.0087V10.6431H25.3359V10.7345V11.0087C25.0299 10.765 24.6322 10.6431 24.1426 10.6431H14.5039L13.7695 12.1055L13.127 10.6431H10.9238H10.0977V11.3743L9.73047 10.6431H7.06836L5.875 13.4764L4.49805 16.4926V16.584H7.61914V16.4926L7.98633 15.67H8.8125L9.17969 16.584H12.668V16.4926V15.8528L12.9434 16.584H14.6875L14.9629 15.8528V16.4926V16.584H16.4316H23.3164H23.4082V15.0302H23.5C23.5612 15.0302 23.5918 15.0911 23.5918 15.213V16.4926H27.998V16.2184C28.4876 16.4012 29.0384 16.4926 29.6504 16.4926H31.3945L31.7617 15.5786H32.5879L32.9551 16.4926H36.5352V15.9442V15.67L36.9941 16.4926H37.1777H39.8398V10.6431H37.1777ZM16.707 15.67H16.0645H15.6973V15.3044V12.3797V12.5625L14.2285 15.67H13.8613H13.4023L11.9336 12.3797V15.67H9.91406L9.45508 14.756H7.43555L6.97656 15.67H5.875L7.71094 11.4657H9.17969L10.9238 15.4872V11.4657H11.291H12.4844V11.5571L13.3105 13.2022L13.8613 14.3904L15.0547 11.4657H16.707V15.67ZM20.8379 12.3797H18.543V13.2022H20.8379V14.0248H18.543V14.8474H20.8379V15.7614H17.4414V11.4657H20.8379V12.3797ZM25.1523 13.9334C25.2135 13.9944 25.2441 14.0248 25.2441 14.0248C25.3665 14.2076 25.4277 14.4514 25.4277 14.756C25.4277 14.756 25.4277 14.7712 25.4277 14.8017C25.4277 14.8322 25.4277 14.8474 25.4277 14.8474V15.67H24.5098V15.213C24.5098 14.7865 24.4486 14.5123 24.3262 14.3904C24.265 14.3295 24.2038 14.2838 24.1426 14.2533C24.0814 14.2229 23.8978 14.2076 23.5918 14.2076H22.582V15.67H21.4805V11.4657H23.7754C24.3874 11.4657 24.8158 11.5266 25.0605 11.6485C25.3665 11.8313 25.5195 12.1359 25.5195 12.5625C25.5195 13.1718 25.2747 13.5678 24.7852 13.7506L25.1523 13.9334ZM27.1719 15.67H26.1621V11.4657H27.1719V15.67ZM38.9219 15.67H37.6367L35.709 12.4711V15.1216V15.67H34.6992H33.6895L33.3223 14.756H31.2109L30.8438 15.7614H29.6504C29.0384 15.7614 28.5488 15.6091 28.1816 15.3044C27.8145 14.9388 27.6309 14.3904 27.6309 13.6592C27.6309 12.9281 27.8145 12.3492 28.1816 11.9227C28.4876 11.618 29.0078 11.4657 29.7422 11.4657H30.6602V12.3797H29.7422C29.4362 12.3797 29.1608 12.4711 28.916 12.6539C28.7324 12.8367 28.6406 13.1413 28.6406 13.5678C28.6406 14.0553 28.7324 14.3904 28.916 14.5732C29.0996 14.756 29.3444 14.8474 29.6504 14.8474H30.1094L31.4863 11.5571H32.1289H32.9551L34.6992 15.5786V15.3958V14.0248V13.9334V11.5571H36.168L37.9121 14.4818V11.5571H38.9219V15.67ZM24.3262 13.2022C24.4486 13.0804 24.4792 12.9281 24.418 12.7453C24.418 12.6843 24.418 12.6539 24.418 12.6539C24.418 12.5929 24.3568 12.532 24.2344 12.4711C24.1732 12.4101 24.0202 12.3797 23.7754 12.3797H22.582V13.385H23.7754C24.0202 13.385 24.1732 13.3546 24.2344 13.2936C24.2344 13.2936 24.265 13.2936 24.3262 13.2936V13.2022ZM42.502 21.7022C42.502 21.2757 42.4102 20.8797 42.2266 20.5141V17.8635V17.6807H39.2891L38.4629 18.0463V17.6807H35.709C35.1582 17.6807 34.7604 17.8026 34.5156 18.0463V17.6807H29.5586V17.8635V18.0463C29.2526 17.8026 28.7936 17.6807 28.1816 17.6807H24.9688V17.8635V18.0463C24.724 17.8026 24.265 17.6807 23.5918 17.6807H19.9199L19.0938 18.5947L18.3594 17.6807H18.084H17.625H12.8516V17.8635V18.3205V23.713H18.1758L19.0938 22.8904L19.8281 23.713H19.9199H22.9492H23.1328H23.2246V23.1646V22.342H23.5C24.1732 22.342 24.6322 22.2811 24.877 22.1592V23.713V23.8044H27.6309V23.713V22.2506H27.7227C27.8451 22.2506 27.9062 22.3116 27.9062 22.4334V23.713V23.8044H36.168C36.7799 23.8044 37.2389 23.6825 37.5449 23.4388V23.713V23.8044H40.1152C40.7884 23.8044 41.278 23.713 41.584 23.5302C42.1348 23.1646 42.4408 22.6162 42.502 21.885C42.502 21.8241 42.502 21.7936 42.502 21.7936C42.502 21.7936 42.502 21.7632 42.502 21.7022ZM23.5 21.3367H22.3066V21.5195V21.885V22.2506V22.8904H20.2871L19.1855 21.6109L19.0938 21.5195L17.8086 22.8904H13.9531V18.6861H17.8086L18.9102 19.8743L19.0938 20.1485L19.1855 20.0571L20.4707 18.6861H23.5918C24.4486 18.6861 24.9993 18.9603 25.2441 19.5087C25.2441 19.6306 25.2441 19.7524 25.2441 19.8743C25.2441 20.8492 24.6628 21.3367 23.5 21.3367ZM29.5586 21.2453C29.681 21.4281 29.7422 21.7022 29.7422 22.0678V22.8904H28.7324V22.342C28.7324 21.9155 28.6712 21.6413 28.5488 21.5195C28.4264 21.3976 28.1816 21.3367 27.8145 21.3367H26.7129V22.8904H25.7031V18.5947H27.998C28.61 18.5947 29.0078 18.6557 29.1914 18.7775C29.5586 19.0212 29.7422 19.3564 29.7422 19.7829C29.7422 20.3313 29.4974 20.6969 29.0078 20.8797C29.3138 21.0015 29.4974 21.1234 29.5586 21.2453ZM33.6895 19.5087H31.3945V20.3313H33.6895V21.1539H31.3945V21.9764H33.6895V22.8904H30.293V18.5947H33.6895V19.5087ZM36.2598 22.8904H34.332V21.9764H36.2598C36.4434 21.9764 36.5811 21.946 36.6729 21.885C36.7646 21.8241 36.8105 21.7327 36.8105 21.6109C36.8105 21.489 36.7646 21.3824 36.6729 21.291C36.5811 21.1996 36.474 21.1539 36.3516 21.1539C36.2904 21.1539 36.1986 21.1539 36.0762 21.1539C35.6478 21.1539 35.3418 21.1234 35.1582 21.0625C34.9746 21.0015 34.7757 20.8797 34.5615 20.6969C34.3473 20.5141 34.2402 20.2399 34.2402 19.8743C34.2402 19.0212 34.6992 18.5947 35.6172 18.5947H37.6367V19.6001H35.8008C35.556 19.6001 35.403 19.6153 35.3418 19.6458C35.2806 19.6763 35.25 19.7829 35.25 19.9657C35.25 20.0876 35.3112 20.179 35.4336 20.2399C35.556 20.3008 35.6784 20.3313 35.8008 20.3313H36.3516C36.9023 20.3313 37.3001 20.4531 37.5449 20.6969C37.7285 20.8797 37.8203 21.1843 37.8203 21.6109C37.8203 22.4639 37.3001 22.8904 36.2598 22.8904ZM41.4004 22.5248C41.1556 22.7686 40.7578 22.8904 40.207 22.8904H38.2793V21.9764H40.207C40.3906 21.9764 40.513 21.946 40.5742 21.885C40.6354 21.8241 40.666 21.7327 40.666 21.6109C40.666 21.489 40.6354 21.3824 40.5742 21.291C40.513 21.1996 40.3906 21.1539 40.207 21.1539C40.1458 21.1539 40.0846 21.1539 40.0234 21.1539C39.5951 21.1539 39.2738 21.1234 39.0596 21.0625C38.8454 21.0015 38.6312 20.8797 38.417 20.6969C38.2028 20.5141 38.0957 20.2399 38.0957 19.8743C38.0957 19.1431 38.4935 18.7166 39.2891 18.5947C39.3503 18.5947 39.4421 18.5947 39.5645 18.5947H41.584V19.6001H40.207H39.748H39.6562C39.4727 19.6001 39.3503 19.6306 39.2891 19.6915C39.1667 19.7524 39.1055 19.8438 39.1055 19.9657C39.1055 20.0876 39.1973 20.179 39.3809 20.2399C39.4421 20.3008 39.5645 20.3313 39.748 20.3313H39.8398H40.2988C40.5436 20.3313 40.7578 20.3617 40.9414 20.4227C41.431 20.6055 41.7064 20.9101 41.7676 21.3367C41.7676 21.4585 41.7676 21.5499 41.7676 21.6109C41.7676 21.9764 41.6452 22.2811 41.4004 22.5248Z" fill="#765B64"/>
</svg>
