<svg width="41" height="31" viewBox="0 0 41 31" fill="none" xmlns="http://www.w3.org/2000/svg">
<path d="M37.0881 28.5831H3.80688C3.33813 28.5831 2.93449 28.4139 2.59595 28.0753C2.25741 27.7368 2.08813 27.3331 2.08813 26.8644V3.58313C2.08813 3.11438 2.25741 2.71073 2.59595 2.37219C2.93449 2.03365 3.33813 1.86438 3.80688 1.86438H37.0881C37.5569 1.86438 37.9605 2.03365 38.2991 2.37219C38.6376 2.71073 38.8069 3.11438 38.8069 3.58313V26.8644C38.8069 27.3331 38.6376 27.7368 38.2991 28.0753C37.9605 28.4139 37.5569 28.5831 37.0881 28.5831ZM37.0881 30.2238C38.0256 30.2238 38.8199 29.8982 39.4709 29.2472C40.122 28.5962 40.4475 27.8019 40.4475 26.8644V3.58313C40.4475 2.64563 40.122 1.85136 39.4709 1.20032C38.8199 0.549276 38.0256 0.223755 37.0881 0.223755H3.80688C2.86938 0.223755 2.07511 0.549276 1.42407 1.20032C0.773031 1.85136 0.44751 2.64563 0.44751 3.58313V26.8644C0.44751 27.8019 0.773031 28.5962 1.42407 29.2472C2.07511 29.8982 2.86938 30.2238 3.80688 30.2238H37.0881ZM21.7756 12.5675C22.5048 12.5675 23.1038 12.8019 23.5725 13.2706C24.0413 13.7394 24.2756 14.3514 24.2756 15.1066C24.2756 15.8618 24.0413 16.4738 23.5725 16.9425C23.1038 17.4113 22.4788 17.6456 21.6975 17.6456H19.9788V20.2238H18.8069V12.5675H21.7756ZM19.9788 16.63H21.4631C22.5569 16.63 23.1038 16.1222 23.1038 15.1066C23.1038 14.0909 22.5569 13.5831 21.4631 13.5831H19.9788V16.63ZM24.51 18.5831C24.51 17.5415 25.2392 16.9946 26.6975 16.9425L28.26 16.7863V16.3956C28.26 15.7185 27.8694 15.38 27.0881 15.38C26.4111 15.38 26.0204 15.6404 25.9163 16.1613H24.8225C24.8225 15.6404 25.0439 15.2238 25.4866 14.9113C25.9293 14.5988 26.4631 14.4425 27.0881 14.4425C27.7652 14.4425 28.3121 14.6118 28.7288 14.9503C29.1454 15.2889 29.3538 15.7446 29.3538 16.3175V20.2238H28.3381V19.2863H28.26C27.9475 19.9633 27.3486 20.3019 26.4631 20.3019C25.8902 20.3019 25.4215 20.1456 25.0569 19.8331C24.6923 19.5206 24.51 19.104 24.51 18.5831ZM28.26 18.0363V17.6456L26.8538 17.7238C26.0725 17.7758 25.6819 18.0623 25.6819 18.5831C25.6819 19.104 26.0465 19.3644 26.7756 19.3644C27.1923 19.3644 27.5439 19.2472 27.8303 19.0128C28.1168 18.7784 28.26 18.4529 28.26 18.0363ZM30.6038 22.255V21.3175C30.7079 21.3696 30.8381 21.3956 30.9944 21.3956C31.5152 21.3956 31.8538 21.1092 32.01 20.5363L32.0881 20.2238L30.0569 14.4425H31.3069L32.7131 19.13H32.7913L34.2756 14.4425H35.4475L33.3381 20.4581C33.0777 21.1352 32.7913 21.617 32.4788 21.9034C32.1663 22.1899 31.6975 22.3331 31.0725 22.3331C31.0204 22.3331 30.8642 22.3071 30.6038 22.255ZM14.51 15.6144C14.51 16.2394 14.6793 16.7732 15.0178 17.2159C15.3564 17.6587 15.6168 17.9451 15.7991 18.0753C15.9814 18.2055 16.1506 18.2967 16.3069 18.3488C16.0986 19.0258 15.7861 19.6508 15.3694 20.2238C14.6402 21.3175 13.9631 21.8644 13.3381 21.8644C13.0256 21.8644 12.6741 21.7732 12.2834 21.5909C11.8928 21.4087 11.5152 21.3175 11.1506 21.3175C10.7861 21.3175 10.3954 21.4087 9.97876 21.5909C9.56209 21.7732 9.22355 21.8644 8.96313 21.8644C8.33813 21.9165 7.63501 21.3696 6.85376 20.2238C6.17668 19.2863 5.73397 18.2055 5.52563 16.9816C5.3173 15.7576 5.47355 14.5988 5.99438 13.505C6.61938 12.4113 7.53084 11.8383 8.72876 11.7863C9.09334 11.7863 9.52303 11.8904 10.0178 12.0988C10.5126 12.3071 10.8381 12.4113 10.9944 12.4113C11.0986 12.4113 11.4501 12.2941 12.0491 12.0597C12.648 11.8253 13.1298 11.7342 13.4944 11.7863C14.5881 11.8383 15.4215 12.281 15.9944 13.1144C15.0048 13.6873 14.51 14.5206 14.51 15.6144ZM12.8694 10.6925C12.2965 11.3696 11.6194 11.6821 10.8381 11.63C10.734 10.9008 10.9683 10.2238 11.5413 9.59875C12.1142 8.92167 12.7652 8.58313 13.4944 8.58313C13.5986 9.3123 13.3902 10.0154 12.8694 10.6925Z" fill="#765B64"/>
</svg>
