<svg width="43" height="37" viewBox="0 0 43 37" fill="none" xmlns="http://www.w3.org/2000/svg">
<path d="M17.3164 14.8384C19.0664 15.8843 21.0352 16.3247 23.2227 16.1595L26.75 18.1412L15.5938 24.5816L0.5 15.8293L11.5742 9.38889L15.1016 11.4531C14.8281 12.7192 15.5664 13.8476 17.3164 14.8384ZM0.5 18.1412L15.5938 26.976L26.75 20.4531V22.2696L15.5938 28.71L0.5 19.9577V18.1412ZM0.5 21.9394L15.5938 30.6916L26.75 24.1687V25.9852L15.5938 32.5082L0.5 23.7559V21.9394ZM0.5 25.6549L15.5938 34.4072L26.75 27.9669V29.7834L15.5938 36.2238L0.5 27.4715V25.6549ZM33.3125 14.343V14.2605L18.2188 5.50816L27.4062 0.223755L42.5 8.97605L33.3125 14.343ZM12.5586 8.89348L17.2344 6.16871L32.3281 14.921V26.5632L27.7344 29.2054V17.5632L12.5586 8.89348ZM33.3125 22.1871V20.3705L42.5 15.0036V16.8201L33.3125 22.1871ZM33.3125 18.4715V16.6549L42.5 11.288V13.1045L33.3125 18.4715ZM33.3125 25.9027V24.1687L42.5 18.8017V20.6182L33.3125 25.9027Z" fill="#765B64"/>
</svg>
