<svg width="37" height="37" viewBox="0 0 37 37" fill="none" xmlns="http://www.w3.org/2000/svg">
<path d="M5.33898 5.33898C5.33898 5.33898 6.22881 4.44914 8.00847 2.66948C9.78814 0.889824 13.1932 -7.62939e-06 18.2237 -7.62939e-06C23.2542 -7.62939e-06 27.5492 1.77965 31.1085 5.33898C34.6678 8.8983 36.4475 13.1932 36.4475 18.2237C36.4475 23.2542 34.6678 27.5491 31.1085 31.1085C27.5492 34.6678 23.2542 36.4474 18.2237 36.4474C13.1932 36.4474 8.8983 34.6678 5.33898 31.1085C1.77966 27.5491 0 23.2542 0 18.2237C0 13.1932 1.77966 8.8983 5.33898 5.33898ZM11.1763 21.8898C11.1763 21.8898 11.1763 21.9788 11.1763 22.1568C11.1763 22.3347 11.3068 22.5424 11.5678 22.7797C11.8288 23.0169 12.1492 23.1356 12.5288 23.1356C12.9085 23.1356 13.2169 23.0169 13.4542 22.7797C14.7356 21.4983 15.3763 19.9797 15.3763 18.2237C15.3763 16.4678 14.7356 14.9491 13.4542 13.6678C13.2169 13.4305 12.9085 13.3119 12.5288 13.3119C12.1492 13.3119 11.8288 13.4305 11.5678 13.6678C11.3068 13.9051 11.1763 14.2017 11.1763 14.5576C11.1763 14.9136 11.3186 15.2339 11.6034 15.5186C12.4102 16.278 12.8136 17.1797 12.8136 18.2237C12.8136 19.2678 12.4102 20.1695 11.6034 20.9288C11.3186 21.2136 11.1763 21.5339 11.1763 21.8898ZM17.0136 26.2678C19.2441 24.0373 20.3593 21.3559 20.3593 18.2237C20.3593 15.0915 19.2441 12.4102 17.0136 10.1797C16.7288 9.89491 16.4085 9.75253 16.0525 9.75253C15.6966 9.75253 15.3763 9.88304 15.0915 10.1441C14.8068 10.4051 14.6644 10.7254 14.6644 11.1051C14.6644 11.4847 14.8068 11.8169 15.0915 12.1017C16.8475 13.8576 17.7254 15.8983 17.7254 18.2237C17.7254 20.5491 16.8475 22.5898 15.0915 24.3458C14.8068 24.583 14.6644 24.8915 14.6644 25.2712C14.6644 25.6508 14.8068 25.983 15.0915 26.2678C15.3763 26.5525 15.6966 26.6949 16.0525 26.6949C16.4085 26.6949 16.7288 26.5525 17.0136 26.2678ZM21 29.1152C23.8475 26.1254 25.2712 22.4949 25.2712 18.2237C25.2712 13.9525 23.8475 10.322 21 7.3322C20.7627 7.09491 20.478 6.97626 20.1458 6.97626C19.8136 6.97626 19.5288 7.09491 19.2915 7.3322C19.0542 7.56948 18.9356 7.87796 18.9356 8.25762C18.9356 8.63728 19.0542 8.94576 19.2915 9.18304C21.522 11.6034 22.6373 14.6169 22.6373 18.2237C22.6373 21.8305 21.522 24.8441 19.2915 27.2644C19.0542 27.5017 18.9356 27.8102 18.9356 28.1898C18.9356 28.5695 19.0542 28.878 19.2915 29.1152C19.5288 29.3525 19.8136 29.4712 20.1458 29.4712C20.478 29.4712 20.7627 29.3525 21 29.1152Z" fill="#765B64"/>
</svg>
