<svg width="37" height="28" viewBox="0 0 37 28" fill="none" xmlns="http://www.w3.org/2000/svg">
<path d="M15.5073 10.4897C15.9854 10.4897 16.3917 10.6812 16.7264 11.0642C16.9176 11.3035 17.0371 11.6626 17.085 12.1413H13.8579C13.8579 11.6626 14.0132 11.2676 14.324 10.9565C14.6348 10.6453 15.0292 10.4897 15.5073 10.4897ZM33.077 0.723755C33.9854 0.723755 34.7742 1.04689 35.4435 1.69317C36.1128 2.33945 36.4475 3.14131 36.4475 4.09875V24.3488C36.4475 25.3062 36.1128 26.1081 35.4435 26.7543C34.7742 27.4006 33.9854 27.7238 33.077 27.7238H3.81803C2.90966 27.7238 2.12082 27.4006 1.45149 26.7543C0.782171 26.1081 0.44751 25.3062 0.44751 24.3488V4.09875C0.44751 3.14131 0.782171 2.33945 1.45149 1.69317C2.12082 1.04689 2.90966 0.723755 3.81803 0.723755H33.077ZM34.1527 24.3488H34.2244V18.7477H2.74233V24.3488C2.74233 24.636 2.8499 24.8993 3.06504 25.1386C3.28018 25.378 3.53117 25.4977 3.81803 25.4977H33.077C33.3638 25.4977 33.6148 25.378 33.83 25.1386C34.0451 24.8993 34.1527 24.636 34.1527 24.3488ZM8.98137 15.8035C9.6985 15.8035 10.2483 15.5163 10.6308 14.9418V15.6599H11.4913V7.54556H10.5591V10.4897C10.3678 10.2504 10.1407 10.0469 9.87779 9.87934C9.61484 9.71179 9.29213 9.62801 8.90966 9.62801C8.43157 9.62801 8.00129 9.75966 7.61882 10.023C7.23635 10.2863 6.9495 10.6573 6.75827 11.136C6.56703 11.6147 6.47141 12.1413 6.47141 12.7158C6.47141 13.2902 6.57898 13.8168 6.79412 14.2956C7.00926 14.7743 7.30807 15.1453 7.69054 15.4086C8.07301 15.6719 8.50329 15.8035 8.98137 15.8035ZM15.579 14.9418C15.0531 14.9418 14.6348 14.7743 14.324 14.4392C14.0132 14.1041 13.834 13.6014 13.7862 12.9312H18.1607C18.1607 12.8833 18.1607 12.8115 18.1607 12.7158C18.1607 11.7583 17.9097 11.0043 17.4077 10.4538C16.9057 9.90328 16.2722 9.62801 15.5073 9.62801C14.6945 9.62801 14.0372 9.90328 13.5352 10.4538C13.0332 11.0043 12.7822 11.7823 12.7822 12.7876C12.7822 13.6972 13.0212 14.4272 13.4993 14.9777C13.9774 15.5283 14.6467 15.8035 15.5073 15.8035C16.2244 15.8035 16.7981 15.636 17.2284 15.3009C17.6587 14.9658 17.9455 14.4871 18.0889 13.8647L17.085 13.7211C16.9415 14.1519 16.7383 14.4631 16.4754 14.6546C16.2124 14.8461 15.9136 14.9418 15.579 14.9418ZM21.9615 9.62801C21.2921 9.62801 20.7423 9.89131 20.312 10.4179V7.54556H19.3798V15.6599H20.2403V14.9418C20.6706 15.5163 21.2324 15.8035 21.9256 15.8035C22.6188 15.8035 23.2045 15.5283 23.6826 14.9777C24.1607 14.4272 24.3997 13.6493 24.3997 12.644C24.3997 12.2131 24.3399 11.8062 24.2204 11.4232C24.1009 11.0402 23.9455 10.7171 23.7543 10.4538C23.563 10.1905 23.3001 9.98705 22.9654 9.84344C22.6308 9.69982 22.2961 9.62801 21.9615 9.62801ZM26.6228 9.77163H25.6188V15.6599H26.6228V9.77163ZM25.6188 8.6945H26.6228V7.54556H25.6188V8.6945ZM30.2802 9.77163H29.2762V7.76099L28.2722 8.33546V9.77163H27.5551V10.5615H28.2722V13.9365C28.2722 14.511 28.32 14.894 28.4156 15.0855C28.5113 15.2769 28.6547 15.4325 28.8459 15.5522C29.0371 15.6719 29.324 15.7317 29.7065 15.7317C29.8977 15.7317 30.1368 15.7078 30.4236 15.6599L30.2802 14.7264C30.0889 14.7743 29.9455 14.7982 29.8499 14.7982C29.7065 14.7982 29.5989 14.7743 29.5272 14.7264C29.4555 14.6785 29.3957 14.6067 29.3479 14.511C29.3001 14.4152 29.2762 14.2477 29.2762 14.0083V10.5615H30.2802V9.77163ZM34.1527 5.24769L34.2244 4.09875C34.2244 3.81152 34.1049 3.54822 33.8658 3.30886C33.6268 3.0695 33.3638 2.94982 33.077 2.94982H3.81803C3.53117 2.94982 3.28018 3.0695 3.06504 3.30886C2.8499 3.54822 2.74233 3.81152 2.74233 4.09875V5.24769H34.1527ZM20.5272 14.2238C20.336 13.8886 20.2403 13.374 20.2403 12.6799C20.2403 11.9857 20.3957 11.4472 20.7065 11.0642C21.0172 10.6812 21.3877 10.4897 21.818 10.4897C22.2483 10.4897 22.6188 10.6692 22.9296 11.0283C23.2403 11.3873 23.3957 11.9498 23.3957 12.7158C23.3957 13.4339 23.2403 13.9844 22.9296 14.3674C22.6188 14.7503 22.2483 14.9418 21.818 14.9418C21.2921 14.9418 20.8619 14.7025 20.5272 14.2238ZM9.05309 10.4897C9.48337 10.4897 9.85388 10.6692 10.1646 11.0283C10.4754 11.3873 10.6308 11.9738 10.6308 12.7876C10.6308 13.5057 10.4754 14.0442 10.1646 14.4033C9.85388 14.7623 9.48337 14.9418 9.05309 14.9418C8.62281 14.9418 8.25229 14.7623 7.94153 14.4033C7.63078 14.0442 7.4754 13.4817 7.4754 12.7158C7.4754 11.9498 7.61882 11.3873 7.90568 11.0283C8.19253 10.6692 8.575 10.4897 9.05309 10.4897Z" fill="#765B64"/>
</svg>
