<svg width="30" height="34" viewBox="0 0 30 34" fill="none" xmlns="http://www.w3.org/2000/svg">
<path d="M7.71056 0.622459C7.57521 0.732029 7.53653 0.957615 7.13048 3.82578C6.87267 5.63691 6.6922 7.13867 6.6922 7.46094C6.68575 8.89824 7.6461 10.2518 9.03829 10.7545C9.31544 10.8576 9.64415 10.9092 10.1984 10.935L10.9719 10.9736L10.9912 12.5012L11.0041 14.0352H9.65704C8.12306 14.0352 7.75567 14.0932 7.38185 14.3768C7.0338 14.6475 6.85978 14.9955 6.82755 15.4982L6.80177 15.9043H5.91232C4.7006 15.9043 4.75216 15.8398 4.75216 17.4061V18.5662L5.44181 19.2623L6.13146 19.9648H8.21329C9.50235 19.9648 10.2951 19.9906 10.2951 20.0293C10.2951 20.0615 9.5797 21.2346 8.70958 22.6396L7.12403 25.1855H5.87364H4.62325L4.43634 25.366C3.94005 25.8365 2.4963 27.5187 2.4963 27.6283C2.4963 27.6928 2.55431 27.8217 2.63165 27.9184C2.75411 28.073 2.79923 28.0859 3.30841 28.0859C3.60489 28.0859 3.84982 28.1053 3.84982 28.1246C3.84982 28.1504 3.12794 29.1881 2.25138 30.432C1.36837 31.676 0.614269 32.7588 0.575597 32.8361C0.459581 33.0424 0.478917 33.1648 0.659386 33.3389L0.814073 33.5H5.02931C8.29708 33.5 9.26388 33.4807 9.34767 33.4162C9.40567 33.3775 10.2049 32.1658 11.1201 30.7285L12.783 28.1182L13.2664 28.0988C13.5307 28.0924 13.8078 28.073 13.8787 28.0537C14.027 28.0215 15.9025 25.9654 15.9863 25.7463C16.0443 25.5852 15.9348 25.2822 15.7865 25.2049C15.7221 25.1791 15.1936 25.1404 14.5942 25.1211L13.5178 25.0889L14.3879 23.7805C14.8649 23.065 15.2902 22.4785 15.3289 22.4785C15.6318 22.4785 20.1371 21.8727 20.4143 21.7953C21.1361 21.5891 21.7162 21.0928 22.0836 20.3645L22.2834 19.9713L25.1838 19.952L28.0906 19.9326L28.7932 19.2172L29.5022 18.5018V17.3416C29.5022 15.8012 29.5602 15.8785 28.3936 15.8527L27.5299 15.8334L27.459 15.3758C27.3688 14.7957 27.1432 14.4605 26.6727 14.2156L26.3311 14.0352H24.8229H23.3147V12.4883V10.9414H23.8818C25.0033 10.9414 25.8412 10.6062 26.5695 9.87793C27.2527 9.19473 27.633 8.31816 27.633 7.42871C27.633 7.21601 27.4332 5.62402 27.1883 3.89668C26.8402 1.41523 26.7178 0.725586 26.634 0.628906C26.518 0.506443 26.402 0.5 22.8893 0.5C18.9576 0.5 19.1059 0.487106 19.0285 0.841599C18.8996 1.42168 18.1584 7.01621 18.1584 7.39648C18.1584 8.29883 18.4807 9.11094 19.1123 9.78769C19.8149 10.5482 20.5625 10.877 21.7227 10.9285L22.4768 10.9607V12.4947V14.0352H21.0201C19.3186 14.0352 19.151 14.0674 18.7385 14.4863C18.4227 14.7957 18.2873 15.1309 18.2873 15.5756V15.8398H17.1723H16.0572L15.9863 15.3822C15.8961 14.7957 15.6705 14.4605 15.2 14.2156L14.8584 14.0352H13.3502H11.842V12.4883V10.9414H12.4092C12.7186 10.9414 13.1504 10.8963 13.376 10.8447C14.91 10.4838 16.0572 9.13672 16.141 7.58984C16.1668 7.15156 16.0895 6.44258 15.7479 4.01269C15.5158 2.34336 15.3225 0.944725 15.3225 0.899609C15.3225 0.854492 15.2516 0.744919 15.1613 0.661133L15.0067 0.5H11.4359C8.05216 0.5 7.85235 0.506443 7.71056 0.622459ZM14.7424 3.40039C14.9293 4.73457 15.0002 5.42422 14.9551 5.46933C14.8455 5.57891 14.0205 5.83672 13.6338 5.88183C13.0988 5.94629 12.4608 5.81738 11.9 5.53379C11.6358 5.39844 11.191 5.1664 10.9074 5.01816C10.1082 4.60566 9.15431 4.46387 8.29708 4.625C8.11017 4.66367 7.94259 4.68301 7.93614 4.67012C7.92325 4.66367 8.01993 3.9418 8.13595 3.07812C8.25841 2.20801 8.36153 1.47969 8.36153 1.44746C8.36153 1.42168 9.73439 1.40234 11.4102 1.40234H14.4588L14.7424 3.40039ZM26.215 3.40039C26.402 4.73457 26.4729 5.42422 26.4277 5.46933C26.3182 5.57891 25.4932 5.83672 25.1065 5.88183C24.5715 5.94629 23.9334 5.81738 23.3727 5.53379C23.1084 5.39844 22.6637 5.1664 22.3801 5.01816C21.5809 4.60566 20.627 4.46387 19.7697 4.625C19.5828 4.66367 19.4152 4.68301 19.4088 4.67012C19.3959 4.66367 19.4926 3.9418 19.6086 3.07812C19.7311 2.20801 19.8342 1.47969 19.8342 1.44746C19.8342 1.42168 21.207 1.40234 22.8828 1.40234H25.9315L26.215 3.40039ZM10.0244 5.64336C10.2436 5.71426 10.6238 5.88828 10.8623 6.03652C11.494 6.4168 11.9645 6.6166 12.4994 6.72617C13.1375 6.86797 13.9818 6.8164 14.6135 6.60371C14.8777 6.51348 15.1033 6.44902 15.1162 6.45547C15.1871 6.52637 15.2451 7.5125 15.1936 7.81543C15.0195 8.88535 14.1365 9.81347 13.0795 10.0326C12.8926 10.0713 12.1256 10.1035 11.3715 10.1035C9.50235 10.1035 9.07052 9.9875 8.36153 9.27207C7.65255 8.56953 7.47208 7.90566 7.63321 6.59082C7.68478 6.12676 7.75567 5.72715 7.7879 5.69492C7.82013 5.66269 8.01349 5.59824 8.21329 5.54668C8.69669 5.44355 9.50235 5.48223 10.0244 5.64336ZM21.4649 5.61758C21.6324 5.66914 22.0578 5.86894 22.4059 6.06875C23.1664 6.50703 23.6047 6.66816 24.2879 6.76484C24.8809 6.84863 25.5899 6.77129 26.1893 6.55859C26.3955 6.48769 26.5695 6.44258 26.5824 6.44902C26.6533 6.52637 26.7178 7.49961 26.6662 7.81543C26.4922 8.88535 25.6092 9.81347 24.5522 10.0326C24.1074 10.1229 21.684 10.1229 21.2393 10.0326C20.1371 9.80058 19.2412 8.88535 19.0672 7.80898C19.0221 7.52539 19.035 7.20312 19.1059 6.57148C19.209 5.75937 19.2219 5.70781 19.3701 5.6498C19.8793 5.45644 20.8783 5.43711 21.4649 5.61758ZM14.8649 15.0342C15.0775 15.1437 15.1291 15.2469 15.1291 15.5885V15.8398H11.4166H7.69767L7.73634 15.5369C7.76212 15.3113 7.81368 15.1953 7.94259 15.0857L8.11017 14.9375H11.3973C14.1559 14.9375 14.7166 14.9504 14.8649 15.0342ZM26.4149 15.1244C26.5631 15.2727 26.6018 15.3758 26.6018 15.5756V15.8398H22.8957H19.1897V15.5562C19.1897 15.3178 19.2219 15.2469 19.3895 15.1051L19.5893 14.9375H22.9086H26.2279L26.4149 15.1244ZM28.5869 17.477L28.6063 18.1859L28.168 18.6242L27.7361 19.0625H17.1658H6.59552L6.15724 18.6307L5.71896 18.1988V17.4705V16.7422L17.1465 16.7551L28.5676 16.7744L28.5869 17.477ZM21.2522 20.0229C21.2522 20.0486 21.149 20.2098 21.0266 20.3709C20.6141 20.9123 20.4723 20.951 17.5139 21.3184C16.0766 21.4988 14.8713 21.6535 14.8262 21.6729C14.7811 21.6857 14.2268 22.485 13.5822 23.4453L12.4221 25.1855H10.2951H8.17462L9.65704 22.8137C10.4756 21.5117 11.2168 20.3387 11.3006 20.2033L11.4553 19.9648H16.3537C19.0479 19.9648 21.2522 19.9906 21.2522 20.0229ZM14.085 26.6164L13.5951 27.1514L8.78048 27.1707L3.97228 27.1836L4.44278 26.6357L4.91329 26.0943L9.74083 26.0879H14.5684L14.085 26.6164ZM11.6358 28.2277C11.5842 28.3115 10.9397 29.3234 10.2049 30.4836L8.86427 32.5977H5.35157H1.83888L1.96134 32.4172C2.02579 32.3141 2.72833 31.2957 3.5211 30.1613L4.9713 28.0859H8.34864H11.726L11.6358 28.2277Z" fill="#D03970"/>
</svg>
