<svg width="45" height="33" viewBox="0 0 45 33" fill="none" xmlns="http://www.w3.org/2000/svg">
<path d="M44.4475 25.9442C44.4475 27.6646 43.8316 29.1413 42.5999 30.3743C41.3681 31.6073 39.8642 32.2238 38.0881 32.2238H6.80688C5.03084 32.2238 3.52694 31.6073 2.29517 30.3743C1.0634 29.1413 0.44751 27.6646 0.44751 25.9442V6.50332C0.44751 4.78289 1.0634 3.30619 2.29517 2.07322C3.52694 0.840242 5.03084 0.223755 6.80688 0.223755H38.0881C39.8642 0.223755 41.3681 0.840242 42.5999 2.07322C43.8316 3.30619 44.4475 4.78289 44.4475 6.50332V25.9442ZM33.9631 25.256V17.9442H28.7209V21.5571C28.4918 21.5571 28.234 21.5571 27.9475 21.5571C27.5465 21.5571 27.3459 21.385 27.3459 21.041C27.3459 21.041 27.3459 20.7255 27.3459 20.0947C27.3459 19.4639 27.3459 18.7184 27.3459 17.8582C27.3459 16.9979 27.3459 16.1091 27.3459 15.1915C27.3459 14.2739 27.3459 13.4711 27.3459 12.7829C27.3459 12.0947 27.3459 11.6933 27.3459 11.5786C27.3459 11.1772 27.5465 10.9764 27.9475 10.9764H28.7209V14.3313H33.9631V7.1915C28.0048 7.1915 24.7965 7.1915 24.3381 7.1915C23.9944 7.1915 23.6363 7.36354 23.2639 7.70763C22.8915 8.05171 22.734 8.33845 22.7913 8.56784C22.7913 8.56784 22.7913 13.6718 22.7913 23.8797C22.7913 24.1664 22.9202 24.4675 23.178 24.7829C23.4358 25.0983 23.7366 25.256 24.0803 25.256H33.9631ZM12.4788 7.1915C12.0204 7.1915 11.648 7.37788 11.3616 7.75064C11.0751 8.1234 10.9319 8.3958 10.9319 8.56784V23.7076C10.9892 24.1091 11.1324 24.4388 11.3616 24.6969C11.5907 24.9549 11.8199 25.1126 12.0491 25.17L12.3928 25.256H21.4163V18.8904H16.8616V21.5571H16.0881C15.9736 21.5571 15.859 21.5141 15.7444 21.4281C15.6298 21.342 15.5439 21.256 15.4866 21.17C15.4293 21.084 15.4006 21.041 15.4006 21.041V17.8582L21.4163 17.9442V7.1915C16.1454 7.1915 13.1663 7.1915 12.4788 7.1915ZM16.8616 10.9764V14.3313H15.4006V11.4926C15.4006 11.3779 15.4722 11.2632 15.6155 11.1485C15.7587 11.0338 15.9163 10.9478 16.0881 10.8904L16.8616 10.9764Z" fill="#765B64"/>
</svg>
