<svg width="36" height="36" viewBox="0 0 36 36" fill="none" xmlns="http://www.w3.org/2000/svg">
<path d="M21.5931 4.19802C17.3674 4.21911 16.9103 4.23317 16.7908 4.33864C16.6713 4.44411 16.6642 4.74645 16.6642 10.7019V16.9457H14.801C12.7197 16.9457 12.6213 16.9668 12.4174 17.3957C12.3541 17.5293 12.3049 17.7332 12.3049 17.8527V18.0707L11.9392 17.8668C11.7353 17.7543 11.3135 17.5785 10.9971 17.48C10.6806 17.3746 10.3783 17.255 10.3221 17.2058C10.2236 17.1285 9.77362 16.1722 9.77362 16.0457C9.77362 16.0105 9.90018 15.8418 10.0619 15.673C10.6174 15.0754 10.9408 14.2035 11.0181 13.1066C11.0674 12.4316 10.9127 12.5511 12.2135 12.1715C13.1205 11.9043 13.2049 11.855 13.3314 11.5597C13.465 11.2363 13.4017 11.0113 13.0291 10.5332C12.4947 9.85114 11.9603 9.56989 11.1025 9.51364L10.5752 9.47145L10.3713 8.95114C9.9283 7.77692 8.75409 7.10192 7.17206 7.10192C5.19627 7.10192 3.7619 8.23396 3.5158 9.98474C3.43846 10.5402 3.46659 11.0043 3.6283 11.7285L3.72674 12.1785L3.55096 12.3191C3.16424 12.6215 2.98846 13.2824 3.17127 13.7605C3.34002 14.2035 3.8744 14.548 4.39471 14.555C4.6619 14.555 4.69002 14.5761 4.92206 14.9558C5.04862 15.1808 5.3158 15.5254 5.50565 15.7293L5.85018 16.0949L5.65331 16.6082L5.46346 17.1215L3.31893 18.4222C2.13768 19.1394 1.06893 19.8144 0.949398 19.934C0.640023 20.2222 0.415023 20.6863 0.372836 21.1222C0.351742 21.3824 0.478304 22.2261 0.836898 24.1457C1.2658 26.48 1.34315 26.8316 1.4908 26.9722C1.75096 27.2394 2.01815 27.2465 2.47518 27.0144L2.87596 26.8175L4.40877 28.034C5.25252 28.709 6.11034 29.3418 6.32831 29.4472C6.67284 29.616 6.79237 29.6371 7.41815 29.63C8.0369 29.63 8.24081 29.5879 9.10565 29.3347C10.3291 28.9621 11.6228 28.6597 12.5861 28.5191C13.2892 28.4136 15.8908 28.1957 16.4603 28.1957H16.7346V29.6019V31.0082H15.8978C14.9627 31.0082 14.8361 31.0574 14.8361 31.43C14.8361 31.8871 14.126 31.859 25.2775 31.8097C34.9596 31.7605 35.3955 31.7535 35.5221 31.6269C35.6908 31.4582 35.6838 31.2543 35.508 31.0785C35.3814 30.9519 35.276 30.9379 34.5728 30.9379H33.7713L33.7291 24.2793C33.701 20.623 33.6799 14.6605 33.6799 11.0394V4.45114L33.5182 4.30349L33.3564 4.1488L29.8057 4.16286C27.858 4.17692 24.1596 4.19099 21.5931 4.19802ZM32.8572 17.9441C32.8853 25.0668 32.8994 30.8957 32.8853 30.9027C32.8783 30.9097 29.433 30.9379 25.2213 30.966L17.5783 31.0082L17.5924 29.5527L17.6135 28.0972L17.8314 28.041C17.951 28.0129 18.0916 27.9355 18.1408 27.8793C18.19 27.823 18.2533 27.7738 18.2885 27.7738C18.3236 27.7738 18.3517 28.259 18.3517 28.8496C18.3517 29.6652 18.3728 29.9605 18.4502 30.066C18.5697 30.2207 17.7682 30.2066 26.3182 30.1855C31.676 30.1644 31.8588 30.1574 31.9853 30.0308C32.1189 29.8972 32.126 29.6793 32.0838 17.9863L32.0486 6.08239L31.8799 5.9277L31.7111 5.77302L25.1158 5.8152C19.3572 5.85036 18.5135 5.87145 18.408 5.96286C18.2885 6.0613 18.2814 6.41286 18.2814 11.5105V16.9457H17.8947H17.508V11.0043V5.06286L21.783 5.04177C24.1314 5.03474 27.5697 5.02067 29.433 5.00661L32.815 4.99255L32.8572 17.9441ZM31.24 17.9441C31.2611 24.1808 31.2682 29.2925 31.2682 29.2996C31.2611 29.2996 28.54 29.3207 25.2213 29.3347L19.1955 29.3558V28.1394V26.93H20.9955C22.4861 26.93 22.8377 26.909 23.0275 26.8175C23.4986 26.5996 23.4846 26.7121 23.4846 21.9379C23.4846 18.0988 23.4705 17.6066 23.3721 17.3957C23.1681 16.9668 23.0697 16.9457 20.9885 16.9457H19.1252V11.8129V6.68005L23.3299 6.65895C25.6361 6.65192 28.3502 6.63786 29.3627 6.6238L31.1978 6.60974L31.24 17.9441ZM8.43768 8.14255C8.64862 8.22692 8.94393 8.39567 9.09862 8.52224C9.34471 8.71911 9.62596 9.1902 9.63299 9.39411C9.63299 9.44333 9.39393 9.48552 8.97909 9.50661C7.88924 9.56286 7.50252 9.80895 6.60252 11.0183L6.11737 11.6722H5.28065H4.44393L4.35956 11.0886C4.22596 10.1113 4.40174 9.40114 4.92909 8.82458C5.5408 8.16364 6.18065 7.93161 7.31268 7.9738C7.84706 7.98786 8.15643 8.03708 8.43768 8.14255ZM9.49237 10.3925C9.49237 10.4277 9.24627 10.6949 8.94393 10.9832C8.34627 11.5668 8.05799 11.7004 7.48846 11.6582L7.17909 11.6371L7.50956 11.2082C7.86112 10.7511 8.15643 10.505 8.47987 10.4066C8.74706 10.3293 9.49237 10.3222 9.49237 10.3925ZM11.7283 10.5191C12.0517 10.6808 12.5158 11.1308 12.4385 11.2082C12.3822 11.2644 11.0955 11.616 11.0674 11.5808C11.0463 11.5668 11.0041 11.3629 10.9689 11.1379C10.9338 10.9058 10.8846 10.6386 10.8564 10.5261C10.8213 10.3433 10.8283 10.3363 11.0885 10.3363C11.2431 10.3363 11.5244 10.4136 11.7283 10.5191ZM10.1744 12.6566C10.1252 14.309 9.77362 15.0543 8.83143 15.5394C8.38846 15.7644 8.29705 15.7855 7.74159 15.7855C7.22127 15.7855 7.08065 15.7574 6.73612 15.5886C6.22987 15.3425 5.80096 14.8644 5.42127 14.1402C5.14706 13.6058 4.78143 12.7269 4.78143 12.5933C4.78143 12.5582 5.55487 12.516 6.52518 12.5019C8.24784 12.4808 8.2619 12.4808 8.64862 12.291C8.88065 12.1785 9.24627 11.8902 9.56268 11.5668L10.09 11.0324L10.1463 11.3347C10.1814 11.5035 10.1885 12.0941 10.1744 12.6566ZM4.16971 13.4019L4.28924 13.7254L4.12752 13.6269C4.03612 13.5636 3.9658 13.43 3.95174 13.2965C3.91659 12.973 4.02909 13.0293 4.16971 13.4019ZM7.43924 16.6363C7.71346 16.6644 8.08612 16.6433 8.33221 16.5941C9.04237 16.4535 9.00018 16.4324 9.26737 17.0441L9.50643 17.5925L9.17596 18.9425C8.99315 19.6808 8.81737 20.3136 8.78924 20.3418C8.76112 20.3769 8.5994 20.159 8.43065 19.8566C8.23377 19.491 7.84706 18.9988 7.25643 18.359C6.77831 17.8316 6.37049 17.3675 6.35643 17.3254C6.33534 17.2832 6.39159 17.0722 6.46893 16.8543C6.60956 16.4816 6.62362 16.4605 6.79237 16.5238C6.89081 16.566 7.17909 16.6152 7.43924 16.6363ZM15.8205 18.1761V18.5629H14.4846H13.1486V18.1761V17.7894H14.4846H15.8205V18.1761ZM19.1252 18.9566V20.1238L18.865 19.9621C18.7174 19.8777 18.4642 19.716 18.3025 19.6035C18.1408 19.498 17.958 19.4066 17.8947 19.4066C17.8314 19.4066 17.6486 19.498 17.4869 19.6035C17.3252 19.716 17.0721 19.8777 16.9314 19.9621L16.6642 20.1238V18.9566V17.7894H17.8947H19.1252V18.9566ZM22.6408 18.1761V18.5629H21.3049H19.9689V18.1761V17.7894H21.3049H22.6408V18.1761ZM6.4619 18.7175C6.69393 18.9777 6.89081 19.2168 6.89081 19.2519C6.89081 19.3082 5.83612 19.8566 5.80096 19.8144C5.47752 19.4136 4.84471 18.4574 4.89393 18.4433C4.92909 18.4293 5.13299 18.3097 5.34393 18.1761L5.73065 17.9371L5.8783 18.0918C5.96268 18.1761 6.22284 18.4574 6.4619 18.7175ZM10.751 18.2957C10.9338 18.359 10.9338 18.4293 10.751 19.266L10.6736 19.6175L10.3431 19.3574L10.0056 19.0902L10.1041 18.7035C10.2658 18.0636 10.2166 18.0918 10.751 18.2957ZM12.0728 18.9566L12.3049 19.1324V22.1207C12.3049 23.759 12.2908 25.1019 12.2697 25.1019C12.2486 25.1019 11.2361 25.3199 10.0197 25.5941C8.8033 25.8613 7.72752 26.0863 7.63612 26.0863C7.48846 26.0863 7.3619 25.9457 6.92596 25.2988C6.51112 24.6871 6.26502 24.209 5.82909 23.1754C5.51268 22.4371 5.21034 21.7761 5.14706 21.7058C4.95721 21.4949 4.59862 21.5722 4.49315 21.8465C4.42987 22.0152 4.53534 22.3105 5.37206 24.2722L5.48456 24.5324L3.81815 25.3761C2.90409 25.8472 2.13768 26.2269 2.11659 26.2269C2.03221 26.2269 1.1744 21.3191 1.22362 21.08C1.30799 20.6441 1.45565 20.5316 3.90955 19.048L4.12752 18.9144L4.7744 19.8215C5.15409 20.3629 5.47752 20.7425 5.5619 20.7636C5.66034 20.7918 5.99784 20.6652 6.55331 20.384C7.01737 20.1519 7.43221 19.9761 7.48143 19.9902C7.52362 20.0113 7.80487 20.4472 8.10721 20.9746C8.40955 21.4949 8.70487 21.9449 8.76112 21.966C9.13377 22.1136 9.29549 21.9027 9.52752 20.9465C9.63299 20.5035 9.74549 20.1168 9.78065 20.0816C9.80877 20.0465 10.0338 20.173 10.2869 20.3699C10.8424 20.8129 10.9689 20.855 11.1869 20.6793C11.3346 20.5668 11.3908 20.405 11.5314 19.6597C11.6228 19.1746 11.7283 18.7738 11.7635 18.7738C11.8056 18.7738 11.9392 18.8511 12.0728 18.9566ZM15.8346 20.2574C15.8556 21.0027 15.8697 21.1152 15.9892 21.2066C16.2283 21.3824 16.4181 21.3191 17.1705 20.8269L17.8947 20.3488L18.633 20.8269C19.3853 21.3191 19.5611 21.3754 19.8002 21.2066C19.9197 21.1152 19.9338 21.0027 19.9549 20.2574L19.983 19.4066H21.3119H22.6408V22.7465V26.0863H19.3783H16.1088L16.2142 25.8332C16.4674 25.2355 15.9752 24.4691 15.3424 24.4691C15.2228 24.4691 14.6885 24.5605 14.1681 24.68C13.6478 24.7925 13.2049 24.891 13.1838 24.891C13.1627 24.891 13.1486 23.6535 13.1486 22.1488V19.4066H14.4775H15.8064L15.8346 20.2574ZM6.39862 26.016C6.89081 26.7261 7.16502 26.93 7.60799 26.93C7.75565 26.93 9.23924 26.6277 10.9127 26.2621C12.5861 25.8894 14.2666 25.5168 14.6463 25.4394C15.2439 25.3058 15.3494 25.2988 15.4056 25.3902C15.5463 25.6152 15.5322 25.6222 13.8306 26.023C13.2963 26.1496 12.8181 26.2832 12.7689 26.3254C12.5791 26.473 12.5721 26.698 12.7408 26.8879L12.9025 27.0707L15.2439 26.9933C17.0299 26.93 17.5994 26.923 17.6627 26.9863C17.8806 27.2043 17.5713 27.2605 15.3283 27.4222C12.3611 27.6261 11.3978 27.7879 8.83143 28.5261C7.60799 28.8777 7.10174 28.9058 6.62362 28.6597C6.43377 28.5613 4.12049 26.7613 3.80409 26.466C3.72674 26.3957 3.88143 26.2902 4.7533 25.8472C5.32987 25.559 5.83612 25.3269 5.87127 25.341C5.91346 25.348 6.14549 25.6504 6.39862 26.016Z" fill="#D03970"/>
<path d="M28.0269 16.9104C27.2113 17.1986 26.8879 18.2182 27.3941 18.9354C27.8934 19.6385 28.8777 19.7088 29.4754 19.076C29.7215 18.8158 29.8129 18.5627 29.8129 18.1338C29.8129 17.5854 29.5035 17.1424 28.9551 16.9174C28.6387 16.7838 28.3855 16.7768 28.0269 16.9104ZM28.709 17.726C28.9199 17.8385 28.9691 17.9229 28.9691 18.183C28.9691 18.619 28.3855 18.8299 28.1113 18.4994C27.9355 18.2744 27.9496 18.0283 28.1605 17.8244C28.3504 17.6275 28.4769 17.6065 28.709 17.726Z" fill="#D03970"/>
<path d="M8.71915 13.9713C8.6629 13.9924 8.50821 14.1049 8.37462 14.2174C8.15665 14.4073 8.10743 14.4213 7.77696 14.3862C6.96837 14.2878 6.86993 14.2948 6.77852 14.4776C6.58165 14.8643 6.9754 15.1807 7.69962 15.244C8.28321 15.2862 8.69102 15.1385 9.02852 14.7588C9.33087 14.4284 9.34493 14.2667 9.09883 14.0698C8.90196 13.9151 8.8879 13.9081 8.71915 13.9713Z" fill="#D03970"/>
<path d="M18.8158 22.943C18.633 23.0766 18.647 23.4141 18.8439 23.5688C18.9845 23.6813 19.1533 23.6953 20.3275 23.6953C21.565 23.6953 21.6634 23.6883 21.797 23.5547C21.9658 23.3859 21.9728 23.2172 21.8251 23.0063C21.7197 22.8586 21.6845 22.8516 20.3275 22.8516C19.2869 22.8516 18.9072 22.8727 18.8158 22.943Z" fill="#D03970"/>
<path d="M17.8738 24.3C17.684 24.4336 17.6699 24.75 17.8457 24.9117C17.9582 25.0172 18.2043 25.0312 19.8496 25.0312C21.6988 25.0312 21.7199 25.0312 21.8254 24.8766C21.973 24.6656 21.966 24.4969 21.7972 24.3281C21.6636 24.1945 21.5652 24.1875 19.8425 24.1875C18.3168 24.1875 18.0074 24.2016 17.8738 24.3Z" fill="#D03970"/>
</svg>
