<svg width="24" height="24" viewBox="0 0 24 24" fill="none" xmlns="http://www.w3.org/2000/svg">
<path d="M19.6399 9.14C19.6399 15.82 11.9999 22.5 11.9999 22.5C11.9999 22.5 4.35986 15.82 4.35986 9.14C4.35986 7.11375 5.16479 5.17048 6.59757 3.7377C8.03035 2.30493 9.97361 1.5 11.9999 1.5C14.0261 1.5 15.9694 2.30493 17.4022 3.7377C18.8349 5.17048 19.6399 7.11375 19.6399 9.14Z" stroke="#D03970" stroke-width="1.5" stroke-miterlimit="10"/>
<path d="M12.0001 12.0003C13.5797 12.0003 14.8601 10.7198 14.8601 9.14027C14.8601 7.56074 13.5797 6.28027 12.0001 6.28027C10.4206 6.28027 9.14014 7.56074 9.14014 9.14027C9.14014 10.7198 10.4206 12.0003 12.0001 12.0003Z" stroke="#D03970" stroke-width="1.5" stroke-miterlimit="10"/>
</svg>
