<svg width="50" height="33" viewBox="0 0 50 33" fill="none" xmlns="http://www.w3.org/2000/svg">
<path d="M1.03317 0.944828C1.03317 0.944828 1.09824 0.863625 1.22839 0.701221C1.35853 0.538818 1.52121 0.408895 1.71643 0.311453C1.91165 0.214012 9.72042 0.197769 25.1427 0.262732H48.1786L48.569 0.555059C48.8293 0.749943 49.0245 1.00979 49.1547 1.33459L49.4475 1.82181V16.3407L49.3499 30.8596L49.0571 31.3468C48.8619 31.6066 48.6016 31.834 48.2762 32.0289L47.7881 32.2238H24.9475C9.72042 32.2238 1.97673 32.1913 1.71643 32.1263C1.26092 31.8665 0.935558 31.5092 0.740338 31.0544L0.44751 30.6647V16.4381C0.44751 6.8888 0.480046 2.00045 0.545119 1.77308C0.610192 1.54572 0.772875 1.26963 1.03317 0.944828ZM18.6029 5.13484C17.1062 4.68011 15.6095 4.58267 14.1128 4.84251C12.2908 5.10236 10.6152 5.78445 9.08596 6.8888C7.55674 7.99314 6.36916 9.38981 5.52321 11.0788C4.74233 12.6379 4.35189 14.3594 4.35189 16.2432C4.35189 17.4775 4.4495 18.4195 4.64472 19.0691C5.16531 20.888 6.06006 22.4958 7.32898 23.8925C8.59791 25.2891 10.1109 26.3123 11.8678 26.9619C13.82 27.7414 15.8536 27.9038 17.9684 27.4491C20.0833 26.9944 21.9216 26.0524 23.4834 24.6233C23.9389 24.2335 24.1666 24.0061 24.1666 23.9412C24.1666 23.8762 24.0365 23.8437 23.7762 23.8437C23.646 23.8437 23.5647 23.8275 23.5322 23.795C23.4996 23.7625 23.4834 23.6488 23.4834 23.454V23.0642H26.8997H30.4136V23.454V23.8437H27.6806C25.8585 23.8437 24.9475 23.8762 24.9475 23.9412C24.9475 24.201 25.6959 24.8182 27.1925 25.7926C29.9907 27.6765 33.0654 28.1637 36.4166 27.2542C39.7679 26.3447 42.1919 24.3309 43.6885 21.2128C44.9249 18.7443 45.2015 16.162 44.5182 13.4661C43.835 10.7702 42.3545 8.5778 40.077 6.8888C39.166 6.23918 38.0923 5.68701 36.8559 5.23228C34.8386 4.58267 32.7725 4.51771 30.6577 5.0374C28.5428 5.55709 26.737 6.59647 25.2403 8.15555L24.5571 8.83764L23.7762 7.96066C22.2795 6.59647 20.5551 5.65453 18.6029 5.13484ZM23.4834 9.71462V9.42229H26.8997H30.4136V9.71462V10.1044H26.8997H23.4834V9.71462ZM22.7025 11.1763V10.8839H26.2164H29.6328V11.1763V11.566H26.2164H22.7025V11.1763ZM21.9216 12.7353L21.824 12.443H25.3379H28.9495V12.8328V13.1251H25.4356H21.9216V12.7353ZM8.93954 15.8535L9.32998 13.0277H10.5013C11.2822 13.0277 11.7051 13.0926 11.7702 13.2225C11.7702 13.3525 11.8353 13.9371 11.9654 14.9765C12.0956 16.0159 12.1932 16.5031 12.2583 16.4381C12.2583 16.4381 12.486 15.8535 12.9415 14.6842L13.5272 13.0277H14.6985C15.5445 13.0277 15.9674 13.0926 15.9674 13.2225C15.9674 13.7422 15.7397 15.5287 15.2842 18.5819L15.1866 18.9716H14.5033C13.9827 18.9716 13.7224 18.9391 13.7224 18.8742C13.7224 18.8092 13.82 18.1271 14.0152 16.8279C14.1454 15.4637 14.2105 14.7816 14.2105 14.7816C14.2105 14.7816 14.1291 14.9765 13.9664 15.3663C13.8038 15.756 13.6248 16.2432 13.4296 16.8279L12.5511 18.8742L11.8678 18.9716C11.4123 18.9716 11.1846 18.9391 11.1846 18.8742C11.1846 18.6793 11.1032 17.9647 10.9405 16.7305C10.7779 15.4962 10.664 14.8466 10.5989 14.7816C10.5989 14.7816 10.5826 14.8791 10.5501 15.0739C10.5176 15.2688 10.485 15.5124 10.4525 15.8048C10.42 16.0971 10.3711 16.4381 10.3061 16.8279L10.1109 18.8742L9.32998 18.9716C8.8094 18.9716 8.5491 18.9067 8.5491 18.7767C8.61418 18.6468 8.74432 17.6724 8.93954 15.8535ZM31.6826 13.5149C31.8127 13.4499 31.9429 13.3849 32.073 13.32C32.2032 13.255 32.3008 13.1901 32.3658 13.1251C32.4309 13.0601 32.4797 13.0277 32.5123 13.0277C32.5448 13.0277 32.5611 13.0764 32.5611 13.1738C32.5611 13.2713 32.5448 13.3687 32.5123 13.4661C32.4797 13.5636 32.4634 13.7097 32.4634 13.9046L32.3658 14.6842H32.8539H33.2443V15.1714C33.1792 15.5611 33.1142 15.7885 33.0491 15.8535C32.984 15.9184 32.8539 15.9509 32.6587 15.9509C32.3333 15.9509 32.1706 16.0484 32.1706 16.2432C32.1055 16.5031 32.073 16.8279 32.073 17.2177V17.8998H32.4634H32.7563V18.387C32.7563 18.7767 32.6912 18.9716 32.5611 18.9716C32.496 19.0366 32.2194 19.0691 31.7314 19.0691C31.2433 19.0691 30.9342 19.0366 30.8041 18.9716C30.4136 18.7767 30.2835 18.1921 30.4136 17.2177C30.4787 16.5681 30.5113 16.1945 30.5113 16.0971C30.5113 15.9996 30.4136 15.9509 30.2184 15.9509C30.0232 15.9509 29.9581 15.6911 30.0232 15.1714C30.0883 14.8466 30.2184 14.6842 30.4136 14.6842C30.6089 14.6842 30.7227 14.5542 30.7553 14.2944C30.7878 14.0346 31.0969 13.7747 31.6826 13.5149ZM17.6268 14.6842C18.2125 14.5542 18.8957 14.5542 19.6766 14.6842C19.8718 14.7491 20.067 14.8953 20.2623 15.1227C20.4575 15.35 20.5225 15.821 20.4575 16.5356C20.3924 17.3801 20.3599 17.9647 20.3599 18.2895V18.9716H19.579C19.0584 18.9716 18.7818 18.9067 18.7493 18.7767C18.7168 18.6468 18.5378 18.6631 18.2125 18.8255C17.8871 18.9879 17.4641 19.0691 16.9435 19.0691C16.4229 19.0691 16.065 18.9716 15.8698 18.7767C15.4143 18.257 15.4143 17.7374 15.8698 17.2177C16.1301 16.9578 16.8459 16.6655 18.0172 16.3407C18.5378 16.2108 18.7981 16.0646 18.7981 15.9022C18.7981 15.7398 18.6517 15.6423 18.3589 15.6099C18.066 15.5774 17.8383 15.6424 17.6756 15.8048C17.5129 15.9672 17.2038 16.0484 16.7483 16.0484C16.2277 15.9834 15.9674 15.9347 15.9674 15.9022C15.9674 15.8697 16.0325 15.7236 16.1627 15.4637C16.488 15.009 16.9761 14.7491 17.6268 14.6842ZM18.7981 17.2177C18.7981 17.0877 18.7656 17.0228 18.7005 17.0228C18.6354 17.0228 18.4077 17.0877 18.0172 17.2177C17.4316 17.4125 17.1713 17.6724 17.2364 17.9972C17.3665 18.1271 17.5455 18.1921 17.7732 18.1921C18.001 18.1921 18.2287 18.0784 18.4565 17.851C18.6842 17.6237 18.7981 17.4125 18.7981 17.2177ZM22.8001 14.6842C23.8413 14.4893 24.6221 14.6842 25.1427 15.2688C25.4681 15.5936 25.5982 16.0808 25.5332 16.7305V17.2177H23.8738L22.1168 17.3151L22.2144 17.51C22.4097 18.1596 22.8326 18.2895 23.4834 17.8998C23.6786 17.8348 24.004 17.8023 24.4595 17.8023C24.915 17.8673 25.3054 17.8673 25.6308 17.8023C26.3466 17.6724 26.8346 17.7374 27.0949 17.9972C27.3552 18.322 27.6806 18.3545 28.071 18.0946C28.4615 17.7698 28.2337 17.51 27.3877 17.3151C27.2576 17.3151 27.1275 17.2826 26.9973 17.2177C26.2164 17.0877 25.7935 16.7629 25.7284 16.2432C25.6633 15.6586 25.9236 15.2039 26.5093 14.8791C26.8346 14.6842 27.3227 14.5867 27.9734 14.5867C28.8844 14.5867 29.4701 14.7816 29.7304 15.1714C29.8605 15.4312 29.8931 15.5936 29.828 15.6586C29.7629 15.7236 29.5352 15.7885 29.1447 15.8535C28.6892 15.8535 28.3964 15.7885 28.2662 15.6586C28.1361 15.5287 27.9571 15.4637 27.7294 15.4637C27.5016 15.4637 27.3552 15.5287 27.2901 15.6586C27.0949 15.8535 27.2251 16.0159 27.6806 16.1458C27.8107 16.1458 27.9734 16.1783 28.1686 16.2432C29.0146 16.3732 29.5352 16.633 29.7304 17.0228C29.9907 17.6074 29.8605 18.1271 29.3399 18.5819C28.8844 18.9067 28.2012 19.0691 27.2901 19.0691C26.249 19.0691 25.6308 18.8417 25.4356 18.387C25.3705 18.1271 25.3217 17.9972 25.2891 17.9972C25.2566 17.9972 25.1427 18.0946 24.9475 18.2895C24.5571 18.8092 23.8413 19.0691 22.8001 19.0691C21.9542 19.0691 21.336 18.8417 20.9455 18.387C20.6202 17.9972 20.5063 17.4775 20.6039 16.8279C20.7015 16.1783 20.9781 15.6586 21.4336 15.2688C21.824 14.944 22.2795 14.7491 22.8001 14.6842ZM23.6786 15.756C23.3532 15.4962 22.9953 15.5287 22.6049 15.8535C22.4097 16.1133 22.3446 16.2757 22.4097 16.3407C22.4747 16.4056 22.735 16.4381 23.1905 16.4381H23.9714V16.1458C23.9063 15.9509 23.8087 15.821 23.6786 15.756ZM35.7822 14.5867C35.9123 14.5867 36.1726 14.6192 36.563 14.6842C36.7583 14.7491 36.7257 15.009 36.4654 15.4637C36.2702 15.7885 36.0425 15.9509 35.7822 15.9509C35.5219 15.886 35.3104 15.9834 35.1477 16.2432C34.985 16.5031 34.8386 17.0065 34.7085 17.7536C34.5783 18.5007 34.5132 18.8742 34.5132 18.8742C34.5132 18.9391 34.253 18.9716 33.7324 18.9716H32.8539L33.1467 16.8279C33.2118 16.5031 33.2769 16.162 33.3419 15.8048C33.407 15.4475 33.4395 15.1714 33.4395 14.9765C33.4395 14.7816 33.4395 14.6842 33.4395 14.6842C33.5046 14.6842 33.7649 14.6842 34.2204 14.6842C34.6109 14.6842 34.8386 14.6842 34.9037 14.6842C34.9688 14.6842 35.0013 14.7816 35.0013 14.9765V15.1714L35.2941 14.9765C35.4893 14.7816 35.652 14.6517 35.7822 14.5867ZM38.2224 14.6842C39.4588 14.4243 40.3047 14.6842 40.7603 15.4637C41.2158 16.1133 41.2158 16.8604 40.7603 17.7049C40.4349 18.3545 39.9468 18.7767 39.2961 18.9716C39.0358 19.0366 38.6779 19.0691 38.2224 19.0691C37.7669 19.0691 37.4415 19.0366 37.2463 18.9716C36.6607 18.7118 36.3028 18.257 36.1726 17.6074C36.0425 16.9578 36.1726 16.3407 36.563 15.756C36.9535 15.1714 37.5066 14.8141 38.2224 14.6842ZM39.1985 15.9509C38.9382 15.6911 38.6454 15.6586 38.32 15.8535C38.0597 15.9834 37.8808 16.292 37.7832 16.7792C37.6856 17.2664 37.7669 17.6074 38.0272 17.8023C38.2875 18.0622 38.5803 18.0946 38.9057 17.8998C39.166 17.7049 39.3287 17.3801 39.3937 16.9253C39.4588 16.4706 39.3937 16.1458 39.1985 15.9509ZM21.824 20.4333C21.824 20.2384 21.8565 20.1247 21.9216 20.0922C21.9867 20.0597 23.158 20.0435 25.4356 20.0435H28.9495V20.4333V20.7256H25.4356H21.824V20.4333ZM22.7025 21.9923V21.6026H26.2164H29.6328V21.9923V22.3821H26.2164H22.7025V21.9923Z" fill="#765B64"/>
</svg>
