<svg width="52" height="33" viewBox="0 0 52 33" fill="none" xmlns="http://www.w3.org/2000/svg">
<path d="M2.88576 0.326319C3.08894 0.257942 10.8439 0.223755 26.1507 0.223755H49.1109L49.6188 0.531446C50.4316 0.873327 50.9734 1.42034 51.2443 2.17247C51.3798 2.51435 51.4475 7.18102 51.4475 16.1725C51.4475 25.1639 51.4136 29.7964 51.3459 30.0699C51.075 30.822 50.6009 31.4032 49.9236 31.8135L49.314 32.1212L26.1507 32.2238C24.6607 32.2238 22.6626 32.2238 20.1567 32.2238C11.1487 32.2238 5.88277 32.2067 4.35886 32.1725C2.83496 32.1383 1.93755 31.9503 1.66663 31.6084C1.5989 31.54 1.53118 31.5058 1.46345 31.5058C1.19253 31.2323 0.955478 30.9246 0.752291 30.5827L0.44751 30.0699V16.4289C0.44751 7.26649 0.515239 2.51435 0.650697 2.17247C1.05707 1.14683 1.80209 0.531446 2.88576 0.326319ZM19.7503 3.91606C18.2603 3.57418 16.7364 3.53999 15.1786 3.8135C12.8081 4.22375 10.7254 5.21521 8.93058 6.78786C7.13576 8.36051 5.86584 10.3092 5.12082 12.634C4.78217 13.7964 4.61285 15.0955 4.61285 16.5314C4.61285 19.1297 5.324 21.4887 6.74631 23.6084C7.62679 24.9759 8.74432 26.1383 10.0989 27.0955C12.2662 28.5314 14.6198 29.2494 17.1597 29.2494C19.6995 29.2494 22.0531 28.5314 24.2204 27.0955C24.83 26.6853 25.1348 26.4631 25.1348 26.4289C25.1348 26.3947 24.8977 26.1041 24.4236 25.5571C23.6109 24.5998 22.9674 23.6426 22.4933 22.6853C21.9515 21.5229 21.6806 20.805 21.6806 20.5314C21.6806 20.4631 21.8499 20.4289 22.1885 20.4289H22.6965L22.8997 20.9417C23.4415 22.5144 24.2543 23.8819 25.3379 25.0443L25.9475 25.7622L26.4555 25.2494C27.4714 24.2238 28.318 22.9246 28.9953 21.352L29.3001 20.5314L29.8081 20.4289C30.1467 20.4289 30.316 20.4802 30.316 20.5827C30.316 20.6853 30.1806 21.0785 29.9097 21.7622C29.3001 23.1981 28.4535 24.4973 27.3698 25.6597C26.9634 26.1383 26.7603 26.3776 26.7603 26.3776C26.7603 26.5827 27.5391 27.0955 29.0969 27.9161C30.8579 28.805 32.7543 29.2494 34.7862 29.2494C36.4117 29.2494 37.9017 28.9759 39.2563 28.4289C42.9814 26.993 45.4874 24.3605 46.7742 20.5314C48.0611 16.7024 47.6208 13.0443 45.4535 9.55709C44.6407 8.25794 43.5909 7.09555 42.3041 6.06991C41.0172 5.18102 39.6965 4.53145 38.3419 4.12119C34.2782 3.02717 30.6208 3.64256 27.3698 5.96734L26.7603 6.48017L27.3698 7.09555C28.6567 8.59982 29.571 10.1383 30.1129 11.7109C30.2483 12.1896 30.316 12.446 30.316 12.4802C30.316 12.5144 30.1467 12.5314 29.8081 12.5314C29.4694 12.5314 29.3001 12.4631 29.3001 12.3263C28.7583 10.6853 27.8439 9.18102 26.5571 7.8135L26.0491 7.09555L25.4395 7.8135C24.2881 8.97589 23.4077 10.3776 22.7981 12.0186L22.6965 12.5314H22.1885C21.8499 12.5314 21.6806 12.4802 21.6806 12.3776C21.6806 12.275 21.816 11.9161 22.087 11.3007C22.6965 9.72803 23.5431 8.36051 24.6268 7.19811C25.0332 6.78786 25.2025 6.54854 25.1348 6.48017C24.9316 6.13828 24.1188 5.62546 22.6965 4.9417C21.8838 4.46307 20.9017 4.12119 19.7503 3.91606ZM21.1726 13.6597C21.1726 13.5229 21.3758 13.4545 21.7822 13.4545C22.0531 13.4545 22.2224 13.4716 22.2901 13.5058C22.3579 13.54 22.3917 13.6255 22.3917 13.7622C22.324 13.8306 22.2563 14.0357 22.1885 14.3776C22.1885 14.5827 22.1885 14.7024 22.1885 14.7366C22.1885 14.7708 22.2901 14.7879 22.4933 14.7879C22.6965 14.7879 22.7642 14.993 22.6965 15.4032C22.6288 15.6767 22.4933 15.8135 22.2901 15.8135H21.8838L21.6806 16.8391C21.5451 17.7964 21.6467 18.275 21.9854 18.275C22.1885 18.3434 22.2901 18.5144 22.2901 18.7879C22.2224 19.1981 21.9176 19.4032 21.3758 19.4032C20.7662 19.4032 20.3937 19.1981 20.2583 18.7879C20.1905 18.5827 20.326 17.6938 20.6646 16.1212C20.9356 14.6169 21.1049 13.7964 21.1726 13.6597ZM31.7383 13.7622C32.6866 13.2836 33.5332 13.352 34.2782 13.9673L34.583 14.1725L34.1766 14.5827C33.9057 14.8562 33.6686 14.9588 33.4654 14.8904C33.0591 14.7537 32.6188 14.7879 32.1447 14.993C31.6706 15.2665 31.3658 15.6767 31.2304 16.2238C31.0949 16.8391 31.2304 17.352 31.6368 17.7622C31.8399 18.0357 32.1447 18.1383 32.5511 18.0699H33.2623L33.3638 18.4802C33.4993 18.822 33.567 19.0272 33.567 19.0955C33.567 19.3691 33.0252 19.4716 31.9415 19.4032C31.1965 19.3349 30.6208 19.0272 30.2144 18.4802C29.8081 17.9332 29.6726 17.2494 29.8081 16.4289C30.079 15.1297 30.7224 14.2408 31.7383 13.7622ZM44.7931 14.4289C44.7931 14.4289 44.8185 14.3007 44.8693 14.0443C44.9201 13.7879 44.9625 13.6255 44.9963 13.5571C45.0302 13.4887 45.2503 13.4545 45.6567 13.4545C45.9953 13.4545 46.1816 13.4716 46.2154 13.5058C46.2493 13.54 46.2662 13.6255 46.2662 13.7622C45.5889 16.9075 45.2503 18.7879 45.2503 19.4032C45.2503 19.4032 45.0132 19.4032 44.5391 19.4032C44.065 19.4032 43.7941 19.352 43.7264 19.2494C43.6587 19.1468 43.4893 19.1639 43.2184 19.3007C42.3379 19.5742 41.7284 19.3007 41.3897 18.4802C41.0511 17.728 41.085 16.9075 41.4913 16.0186C41.8977 15.1981 42.5411 14.7879 43.4216 14.7879C43.8957 14.7879 44.2005 14.8562 44.336 14.993C44.4714 15.1297 44.5561 15.1981 44.5899 15.1981C44.6238 15.1981 44.6915 14.9417 44.7931 14.4289ZM44.0312 16.0186C43.6925 15.6767 43.32 15.7109 42.9136 16.1212C42.6427 16.4631 42.4903 16.805 42.4565 17.1468C42.4226 17.4887 42.5073 17.7622 42.7105 17.9673C42.9136 18.1725 43.1846 18.2067 43.5232 18.0699C43.7941 17.9332 43.9973 17.5913 44.1328 17.0443C44.2682 16.4973 44.2344 16.1554 44.0312 16.0186ZM6.23835 16.4289L6.74631 13.7622H7.76225H8.77819L8.87978 14.993C8.94751 15.8135 8.98137 16.3605 8.98137 16.634L9.08297 17.1468L9.79412 15.5058C10.336 14.4118 10.6407 13.8648 10.7085 13.8648C10.7085 13.7964 11.0471 13.7964 11.7244 13.8648H12.6387L12.2324 16.4289C11.8937 18.1383 11.7075 19.0614 11.6736 19.1981C11.6397 19.3349 11.4196 19.4032 11.0132 19.4032C10.6746 19.4032 10.4714 19.4032 10.4037 19.4032C10.336 19.4032 10.336 19.3349 10.4037 19.1981C10.8778 16.9417 11.081 15.7451 11.0132 15.6084C11.0132 15.6084 10.9286 15.7964 10.7593 16.1725C10.5899 16.5485 10.3698 17.0101 10.0989 17.5571L9.28616 19.4032H8.67659H8.06703L7.96544 17.6597C7.82998 16.4973 7.76225 15.8477 7.76225 15.7109L7.35588 16.9417C7.22042 17.9673 7.11882 18.6169 7.0511 18.8904L6.9495 19.4032H6.33994C5.93357 19.4032 5.73038 19.352 5.73038 19.2494C5.73038 19.1468 5.8997 18.2067 6.23835 16.4289ZM13.4515 14.7879C14.4674 14.5827 15.2463 14.6169 15.7881 14.8904C16.1945 15.0955 16.4316 15.3691 16.4993 15.7109C16.567 16.0528 16.5162 16.7024 16.3469 17.6597C16.1776 18.6169 16.0591 19.1468 15.9913 19.2494C15.9236 19.352 15.7204 19.4032 15.3818 19.4032C15.0431 19.4032 14.8399 19.3691 14.7722 19.3007C14.7045 19.2323 14.5521 19.2323 14.315 19.3007C14.078 19.3691 13.7901 19.4032 13.4515 19.4032C12.4356 19.3349 12.063 18.822 12.334 17.8648C12.5372 16.9759 13.2483 16.4973 14.4674 16.4289C15.0093 16.3605 15.2802 16.2579 15.2802 16.1212C15.2802 16.0528 15.2294 15.9673 15.1278 15.8648C15.0262 15.7622 14.6368 15.7109 13.9595 15.7109C13.4176 15.7793 13.1128 15.7964 13.0451 15.7622C12.9774 15.728 12.9435 15.6767 12.9435 15.6084C12.9435 15.1297 13.1128 14.8562 13.4515 14.7879ZM14.9754 17.6597C14.9754 17.4545 14.9077 17.352 14.7722 17.352C14.4336 17.2836 14.1288 17.352 13.8579 17.5571C13.587 17.7622 13.5023 17.9844 13.6039 18.2238C13.7055 18.4631 13.9425 18.5144 14.315 18.3776C14.6875 18.2408 14.9077 18.0015 14.9754 17.6597ZM17.9216 14.8904C18.1248 14.7537 18.5312 14.6853 19.1407 14.6853C19.7503 14.6853 20.0889 14.7195 20.1567 14.7879C20.1567 14.8562 20.1228 15.0272 20.0551 15.3007L19.9535 15.7109H19.3439C18.7344 15.7109 18.4126 15.7964 18.3788 15.9673C18.3449 16.1383 18.565 16.3605 19.0391 16.634C19.7164 17.0443 20.0212 17.5229 19.9535 18.0699C19.8858 18.6169 19.6148 18.993 19.1407 19.1981C18.8021 19.4032 18.2941 19.4716 17.6168 19.4032C16.9395 19.4032 16.567 19.3691 16.4993 19.3007C16.4993 19.3007 16.4993 19.1297 16.4993 18.7879L16.6009 18.3776H17.5152C18.328 18.446 18.7344 18.3092 18.7344 17.9673C18.7344 17.899 18.4634 17.728 17.9216 17.4545C17.3121 17.0443 17.0073 16.634 17.0073 16.2238C17.0073 15.54 17.3121 15.0955 17.9216 14.8904ZM24.1188 14.7879C24.7961 14.5144 25.4395 14.5827 26.0491 14.993C26.7264 15.4032 26.9296 16.087 26.6587 17.0443C26.6587 17.2494 26.1846 17.352 25.2364 17.352H23.9156V17.5571C23.9156 18.1725 24.4913 18.446 25.6427 18.3776L26.4555 18.275V18.6853C26.3877 18.9588 26.3031 19.1468 26.2015 19.2494C26.0999 19.352 25.7613 19.4032 25.1856 19.4032C24.6099 19.4032 24.1866 19.3691 23.9156 19.3007C22.8997 19.0272 22.4595 18.275 22.5949 17.0443C22.7304 15.8819 23.2383 15.1297 24.1188 14.7879ZM25.3379 15.8135C25.2025 15.6084 24.9993 15.54 24.7284 15.6084C24.4575 15.6767 24.2543 15.8135 24.1188 16.0186C23.9834 16.2238 23.9495 16.3605 24.0172 16.4289C24.085 16.4973 24.322 16.5314 24.7284 16.5314H25.5411V16.2238C25.5411 16.0186 25.4734 15.8819 25.3379 15.8135ZM34.9893 14.7879C35.2603 14.7195 35.6666 14.6853 36.2085 14.6853C37.3599 14.6853 38.0033 15.1297 38.1387 16.0186C38.2742 16.3605 38.1049 17.4203 37.6308 19.1981C37.6308 19.3349 37.4445 19.4032 37.072 19.4032C36.6995 19.4032 36.4794 19.3691 36.4117 19.3007C36.3439 19.2323 36.2085 19.2323 36.0053 19.3007C35.3957 19.5742 34.8539 19.5742 34.3798 19.3007C34.0411 19.0272 33.8718 18.6511 33.8718 18.1725C33.8718 17.6938 34.0581 17.2836 34.4306 16.9417C34.8031 16.5998 35.3957 16.4289 36.2085 16.4289C36.6148 16.4289 36.818 16.3263 36.818 16.1212C36.818 15.7793 36.3778 15.6426 35.4973 15.7109C35.0232 15.7793 34.7523 15.7964 34.6846 15.7622C34.6168 15.728 34.583 15.6767 34.583 15.6084C34.583 15.1297 34.7184 14.8562 34.9893 14.7879ZM36.6148 17.6597C36.6148 17.4545 36.5471 17.3178 36.4117 17.2494C35.7344 17.181 35.328 17.3861 35.1925 17.8648C35.1248 18.2067 35.2941 18.3776 35.7005 18.3776C36.1746 18.3776 36.4794 18.1383 36.6148 17.6597ZM38.9515 14.8904C39.0192 14.7537 39.2224 14.6853 39.5611 14.6853C39.8997 14.6853 40.086 14.7537 40.1198 14.8904C40.1537 15.0272 40.3399 15.0272 40.6786 14.8904C41.1527 14.7537 41.3897 14.7537 41.3897 14.8904C41.3897 14.9588 41.322 15.1639 41.1866 15.5058C41.1188 15.7793 41.0511 15.9161 40.9834 15.9161C40.577 15.9161 40.2722 16.1554 40.069 16.634C39.9336 16.9075 39.7981 17.4545 39.6627 18.275L39.3579 19.4032H38.7483C38.4774 19.4032 38.3081 19.4032 38.2403 19.4032C38.1726 19.4032 38.1387 19.3349 38.1387 19.1981C38.2065 19.0614 38.3419 18.3434 38.5451 17.0443C38.816 15.6767 38.9515 14.9588 38.9515 14.8904ZM27.1666 17.0443C27.1666 17.0443 27.2344 16.6853 27.3698 15.9673C27.5053 15.2494 27.573 14.8733 27.573 14.8391C27.573 14.805 27.7593 14.7879 28.1318 14.7879C28.5043 14.7879 28.7075 14.8562 28.7413 14.993C28.7752 15.1297 28.8937 15.1297 29.0969 14.993C29.1646 14.9246 29.2662 14.8733 29.4017 14.8391C29.5372 14.805 29.6557 14.7879 29.7573 14.7879C29.8589 14.7879 29.9097 14.805 29.9097 14.8391C29.9097 14.8733 29.8589 15.0785 29.7573 15.4545C29.6557 15.8306 29.5372 16.0186 29.4017 16.0186C28.8599 16.0186 28.4874 16.6682 28.2842 17.9673C28.081 18.7879 27.9625 19.2323 27.9286 19.3007C27.8947 19.3691 27.7085 19.4032 27.3698 19.4032C26.9634 19.4032 26.7603 19.3691 26.7603 19.3007C26.7603 19.2323 26.8957 18.4802 27.1666 17.0443Z" fill="#765B64"/>
</svg>
