<svg width="28" height="28" viewBox="0 0 28 28" fill="none" xmlns="http://www.w3.org/2000/svg">
<path d="M22.5167 2.00667L20.5042 4.01333L20.2533 3.69833C19.5592 2.82917 18.4042 2.16417 17.2083 1.94833C16.5375 1.82583 11.4567 1.83167 10.7625 1.95417C8.68 2.31583 6.9825 4.01333 6.62083 6.09583C6.55083 6.49833 6.53333 7.09917 6.53333 8.90167V11.2H4.34583H2.1525L2.0125 11.3458C1.93083 11.4217 1.86667 11.5208 1.86667 11.5617C1.86667 11.6083 1.44667 15.2075 0.933333 19.5708C0.42 23.9342 0 27.545 0 27.6092C0 27.6675 0.0641667 27.7783 0.145833 27.8542L0.285833 28H14H27.7142L27.8542 27.8542C27.9358 27.7783 28 27.6675 28 27.6092C28 27.545 27.58 23.9342 27.0667 19.5708C26.5533 15.2075 26.1333 11.6083 26.1333 11.5617C26.1333 11.5208 26.0692 11.4217 25.9875 11.3458L25.8475 11.2H23.6133H21.3733L21.6242 10.6925C22.05 9.82333 22.225 8.65083 22.0442 7.88083L21.9858 7.61833L24.5292 5.075C26.8917 2.7125 27.0667 2.52 27.0667 2.33333C27.0667 2.1525 26.9675 2.03583 25.9992 1.0675C25.0308 0.0991669 24.9142 0 24.7333 0C24.5467 0 24.3833 0.151667 22.5167 2.00667ZM25.3458 1.75L25.9292 2.33333L24.395 3.8675L22.8667 5.39583L22.2717 4.795L21.6708 4.2L23.1875 2.68333C24.0217 1.84917 24.7158 1.16667 24.7333 1.16667C24.7508 1.16667 25.025 1.42917 25.3458 1.75ZM11.1592 3.08583C10.2375 3.85 9.58417 5.01667 9.39167 6.24167C9.3625 6.45167 9.33333 7.64167 9.33333 8.9075V11.2H8.39417H7.46083L7.47833 8.70333L7.50167 6.2125L7.65917 5.74583C8.155 4.27 9.3625 3.185 10.85 2.8875C11.5208 2.75333 11.5383 2.765 11.1592 3.08583ZM17.6167 3.01C18.3692 3.24333 19.1508 3.79167 19.67 4.445L19.8508 4.67833L19.6525 4.87083C19.4658 5.0575 19.4425 5.06333 19.1917 5.01667C19.0458 4.9875 18.7833 4.96417 18.6025 4.95833H18.2758L18.0133 4.50333C17.6808 3.94333 17.255 3.43 16.8175 3.06833L16.4792 2.78833L16.8292 2.82917C17.0217 2.8525 17.3775 2.93417 17.6167 3.01ZM15.0208 3.08583C15.82 3.395 16.5142 3.9375 16.9808 4.62C17.3017 5.08667 17.3075 5.11 17.0917 5.15667C16.7942 5.215 15.96 5.62917 15.4758 5.95583C15.155 6.17167 14.315 6.97083 12.6408 8.63333L10.2608 10.9958L10.2783 8.60417L10.2958 6.2125L10.4767 5.69917C10.7333 4.9875 10.9783 4.59667 11.5208 4.05417C12.0517 3.52333 12.4775 3.24917 13.1542 3.01583C13.7783 2.8 14.3383 2.8175 15.0208 3.08583ZM21.6125 5.48333L22.1958 6.06667L21.8283 6.42833L21.4667 6.79583L20.8717 6.20083L20.2708 5.6L20.6208 5.25C20.8133 5.0575 20.9825 4.9 21 4.9C21.0175 4.9 21.2917 5.1625 21.6125 5.48333ZM19.3025 6.00833C19.355 6.0375 19.7692 6.43417 20.23 6.90083C21.1575 7.83417 21.1692 7.85167 21.175 8.63333C21.175 9.38 20.8892 10.255 20.4225 10.9317L20.2358 11.2H19.5475C18.9642 11.2 18.8475 11.1825 18.7658 11.095C18.6842 11.0075 18.6725 10.6808 18.6492 8.575C18.6375 7.245 18.6083 6.09 18.5792 6.01417C18.5325 5.87417 18.5325 5.87417 18.865 5.915C19.0517 5.9325 19.25 5.97917 19.3025 6.00833ZM17.6458 6.13667C17.675 6.2125 17.7042 7.1225 17.7158 8.16667L17.7392 10.0625L16.4383 8.76167L15.1375 7.46083L15.4292 7.1925C15.82 6.83083 16.4383 6.43417 16.975 6.20083C17.4942 5.97333 17.5875 5.9675 17.6458 6.13667ZM16.0125 9.68333L17.5292 11.2H14.4667H11.4042L12.9208 9.68333C13.755 8.84917 14.4492 8.16667 14.4667 8.16667C14.4842 8.16667 15.1783 8.84917 16.0125 9.68333ZM6.53333 12.9208C6.53333 13.685 6.53917 13.72 6.67917 13.8542C6.86583 14.0467 7.13417 14.0467 7.32083 13.8542C7.46083 13.72 7.46667 13.685 7.46667 12.9208V12.1333H12.6H17.7333V12.9208C17.7333 13.685 17.7392 13.72 17.8792 13.8542C17.9667 13.9475 18.0892 14 18.2 14C18.3108 14 18.4333 13.9475 18.5208 13.8542C18.6608 13.72 18.6667 13.685 18.6667 12.9208V12.1333H19.6292C20.16 12.1333 20.5917 12.145 20.5917 12.1625C20.5917 12.215 22.2775 26.5533 22.3125 26.8158L22.3475 27.0667H11.6667H0.985833L1.02083 26.8158C1.05583 26.5533 2.74167 12.215 2.74167 12.1625C2.74167 12.145 3.59333 12.1333 4.6375 12.1333H6.53333V12.9208ZM22.925 12.2033C22.925 12.2442 23.2283 15.05 23.59 18.4333L24.255 24.5875L23.7242 25.3983C23.4267 25.8475 23.1817 26.1742 23.1758 26.1275C23.1642 26.0808 22.8025 23.0242 22.3708 19.3375C21.9392 15.645 21.5717 12.5183 21.5542 12.3783L21.5192 12.1333H22.2192C22.7442 12.1333 22.925 12.1508 22.925 12.2033ZM25.2583 12.1625C25.2583 12.18 25.6258 15.3242 26.075 19.145C26.5242 22.9658 26.8858 26.1158 26.88 26.145C26.8683 26.1683 26.4833 25.8125 26.0225 25.3517L25.1767 24.5058L24.5175 18.3925C24.1558 15.0325 23.8642 12.2442 23.8583 12.2033C23.8583 12.1508 24.0333 12.1333 24.5583 12.1333C24.9433 12.1333 25.2583 12.145 25.2583 12.1625ZM26.3667 27.0492C26.3667 27.0608 25.7775 27.0667 25.0542 27.0667H23.7417L24.2725 26.2733L24.8033 25.4742L25.585 26.2558C26.0167 26.6875 26.3667 27.0433 26.3667 27.0492Z" fill="#D03970"/>
<path d="M8.91343 13.3118C8.58093 13.6735 8.2426 14.3968 8.09676 15.0793C8.02676 15.4002 7.96843 15.6685 7.9626 15.6743C7.95676 15.6802 7.74676 15.6218 7.4901 15.5343C6.70843 15.2777 6.53343 15.4118 6.48676 16.2927C6.44593 17.1502 6.72593 17.961 7.32676 18.7018L7.5951 19.0343L7.43176 19.3727C7.34426 19.5652 7.25093 19.7168 7.2276 19.7168C7.20426 19.7168 7.02343 19.5243 6.81926 19.291C6.32926 18.7252 6.25926 18.6668 6.0551 18.6668C5.8276 18.6668 5.6001 18.9002 5.6001 19.1277C5.6001 19.3377 5.9501 19.781 6.63843 20.4285C7.42593 21.1635 8.44093 21.7527 9.09426 21.8518C9.32176 21.8868 9.35676 21.916 9.45593 22.1318L9.56093 22.371L9.18176 22.4118C8.5051 22.4935 8.00926 22.8202 7.69426 23.4035C7.51343 23.7418 7.49593 23.8118 7.50176 24.2668C7.50176 24.6518 7.53093 24.821 7.6301 25.0252C7.82843 25.4335 8.0676 25.6843 8.44676 25.8885C9.10593 26.2385 9.8001 26.1918 10.4359 25.7485L10.7393 25.5443L10.9259 25.6843C11.3634 26.0168 11.6084 26.0985 12.1334 26.0985C12.6584 26.0985 12.9034 26.0168 13.3409 25.6785L13.5334 25.5385L13.7201 25.6785C14.1634 26.0168 14.4084 26.0985 14.9334 26.0985C15.4584 26.0985 15.7034 26.0168 16.1409 25.6843L16.3276 25.5443L16.6309 25.7485C17.6226 26.431 18.8651 26.1335 19.3784 25.0952C19.5476 24.751 19.5709 24.6518 19.5651 24.2377C19.5651 23.8702 19.5359 23.7185 19.4309 23.5085C19.2093 23.0768 19.0226 22.8727 18.6901 22.6802C18.4451 22.546 18.3809 22.4818 18.4101 22.406C18.4334 22.3535 18.5034 22.1668 18.5676 21.9918C18.7718 21.4202 18.6201 20.726 18.1768 20.201C18.0134 20.0027 17.4009 19.6585 17.2201 19.6585C17.0393 19.6585 17.0159 19.571 17.1326 19.3552C17.2084 19.2152 17.2318 19.0285 17.2318 18.6668C17.2318 18.2468 17.2084 18.1243 17.0801 17.8735C16.8526 17.436 16.6718 17.2493 16.2634 17.0277C15.9309 16.8468 15.8493 16.8293 15.4293 16.8293C14.9101 16.8293 14.6943 16.8993 14.2743 17.191L13.9943 17.3835L13.8076 17.2435C13.5451 17.051 13.1543 16.8585 13.0084 16.8585C12.9443 16.8585 12.8918 16.8235 12.8918 16.7827C12.8859 16.7477 13.0376 16.211 13.2184 15.5985C13.5743 14.3968 13.5859 14.251 13.3234 14.076C13.1718 13.9827 13.1134 13.9885 11.8301 14.1985C11.0951 14.321 10.4826 14.4085 10.4768 14.3968C10.4651 14.391 10.2726 14.0993 10.0451 13.761C9.8176 13.4168 9.5901 13.1252 9.5376 13.1018C9.30426 13.0143 9.1351 13.0668 8.91343 13.3118ZM9.6776 14.8868C9.87593 15.1843 10.0276 15.3535 10.1209 15.3768C10.1968 15.3943 10.7276 15.3302 11.2993 15.2368C11.8709 15.1435 12.3493 15.0735 12.3609 15.0852C12.3726 15.0968 12.2618 15.5285 12.1043 16.036L11.8243 16.9693L11.5501 17.1385C11.0659 17.436 10.7334 18.0718 10.7334 18.6902V18.9993L10.5176 19.0402C10.0218 19.1218 9.08843 19.0227 8.93676 18.8768C8.83176 18.766 9.84093 17.6402 10.3484 17.3018C10.5176 17.191 10.6751 17.051 10.6984 16.9985C10.8151 16.6952 10.5934 16.3335 10.2843 16.3335C9.89926 16.3335 9.01843 17.1152 8.17843 18.2002C8.1376 18.2527 7.81676 17.8268 7.67093 17.5293C7.51926 17.2318 7.36176 16.596 7.41426 16.5377C7.43176 16.5202 7.64176 16.5727 7.8751 16.6543C8.41176 16.8352 8.54593 16.8352 8.72093 16.6543C8.83176 16.5493 8.86676 16.4502 8.86676 16.2518C8.86676 15.721 9.22843 14.2743 9.33343 14.391C9.35676 14.4143 9.50843 14.6418 9.6776 14.8868ZM12.9734 17.8152C13.2301 17.9202 13.4751 18.2527 13.5159 18.5385C13.6326 19.4252 12.5826 19.9443 11.9526 19.3143C11.2293 18.591 12.0284 17.4185 12.9734 17.8152ZM15.7676 17.8152C16.3743 18.066 16.5143 18.836 16.0418 19.3085C15.6568 19.6935 15.1318 19.6993 14.7526 19.3143C14.0293 18.5968 14.8284 17.4185 15.7676 17.8152ZM8.89593 19.8452C9.08843 19.9035 9.40926 19.9735 9.6076 19.991L9.96926 20.026L9.82343 20.201C9.74176 20.2943 9.61343 20.5043 9.53176 20.6677C9.39176 20.936 9.37426 20.9535 9.19926 20.9185C8.8726 20.8602 8.02093 20.3993 8.02676 20.2885C8.0326 20.2302 8.10843 20.0668 8.19593 19.921C8.3126 19.7168 8.37676 19.6585 8.44676 19.6935C8.5051 19.711 8.70343 19.781 8.89593 19.8452ZM11.5676 20.6152C12.1743 20.866 12.3143 21.636 11.8418 22.1085C11.4568 22.4935 10.9318 22.4993 10.5526 22.1143C9.82926 21.3968 10.6284 20.2185 11.5676 20.6152ZM14.3734 20.6152C14.6301 20.7202 14.8751 21.0527 14.9159 21.3385C15.0326 22.2252 13.9826 22.7443 13.3526 22.1143C12.6293 21.391 13.4284 20.2185 14.3734 20.6152ZM17.1734 20.6152C17.4301 20.7202 17.6751 21.0527 17.7159 21.3385C17.8326 22.2252 16.7826 22.7443 16.1526 22.1143C15.4293 21.391 16.2284 20.2185 17.1734 20.6152ZM9.70093 23.4152C10.3018 23.666 10.4476 24.4477 9.98093 24.9143C9.60176 25.2935 9.0651 25.2935 8.68593 24.9143C7.9626 24.1968 8.76176 23.0185 9.70093 23.4152ZM12.5009 23.4152C13.1018 23.666 13.2476 24.4477 12.7809 24.9143C12.4018 25.2935 11.8651 25.2935 11.4859 24.9143C10.7626 24.1968 11.5618 23.0185 12.5009 23.4152ZM15.3009 23.4152C15.9018 23.666 16.0476 24.4477 15.5809 24.9143C15.2018 25.2935 14.6651 25.2935 14.2859 24.9143C13.5626 24.1968 14.3618 23.0185 15.3009 23.4152ZM18.1009 23.4152C18.7018 23.666 18.8476 24.4477 18.3809 24.9143C18.0018 25.2935 17.4651 25.2935 17.0859 24.9143C16.3626 24.1968 17.1618 23.0185 18.1009 23.4152Z" fill="#D03970"/>
</svg>
