<svg width="37" height="27" viewBox="0 0 37 27" fill="none" xmlns="http://www.w3.org/2000/svg">
<path d="M36.4475 21.1216C36.4475 22.5195 35.9436 23.7193 34.9358 24.7211C33.928 25.7229 32.6975 26.2238 31.2444 26.2238H5.65063C4.19751 26.2238 2.96704 25.7229 1.95923 24.7211C0.951416 23.7193 0.44751 22.5195 0.44751 21.1216V5.32591C0.44751 3.92806 0.951416 2.72824 1.95923 1.72644C2.96704 0.724651 4.19751 0.223755 5.65063 0.223755H31.2444C32.6975 0.223755 33.928 0.724651 34.9358 1.72644C35.9436 2.72824 36.4475 3.92806 36.4475 5.32591V21.1216ZM16.0569 9.1001L14.7209 17.2775H16.8303L18.1663 9.1001H16.0569ZM22.4553 12.4549C21.6584 12.0822 21.26 11.756 21.26 11.4764C21.26 11.0105 21.6584 10.7775 22.4553 10.7775C22.9709 10.7775 23.4866 10.894 24.0022 11.127L24.2131 11.1969L24.4944 9.44956C23.9319 9.26318 23.2991 9.16999 22.5959 9.16999C21.5647 9.16999 20.7092 9.40297 20.0295 9.86892C19.3499 10.3349 19.01 10.9639 19.01 11.756C19.01 12.5947 19.6428 13.3169 20.9084 13.9227C21.6116 14.2488 21.9631 14.575 21.9631 14.9012C21.9631 15.4137 21.5413 15.67 20.6975 15.67C20.0413 15.67 19.385 15.5302 18.7288 15.2506L18.4475 15.1109L18.1663 16.9281C18.7756 17.161 19.5491 17.3008 20.4866 17.3474C21.6116 17.3474 22.5139 17.1028 23.1936 16.6135C23.8733 16.1243 24.2131 15.4603 24.2131 14.6216C24.2131 13.7363 23.6272 13.0141 22.4553 12.4549ZM29.9084 9.16999H28.2913C27.7288 9.16999 27.3538 9.37967 27.1663 9.79902L24.0725 17.2775H26.2522L26.885 15.67H29.3459L29.6975 17.3474H31.5959L29.9084 9.16999ZM27.5178 14.0625L28.3616 11.4066L28.9944 14.0625H27.5178ZM12.9631 9.1001L10.8538 14.6915L10.6428 13.5732C10.4553 12.9675 10.092 12.3501 9.55298 11.7211C9.01392 11.092 8.41626 10.6144 7.76001 10.2883L9.65845 17.2775H11.8381L15.2131 9.1001H12.9631ZM9.9397 10.1485C9.7522 9.49616 9.30688 9.14669 8.60376 9.1001H5.29907V9.30978C6.51782 9.58935 7.6311 10.1485 8.63892 10.9872C9.64673 11.8259 10.3147 12.7112 10.6428 13.6431L9.9397 10.1485Z" fill="#765B64"/>
</svg>
